<svg xmlns="http://www.w3.org/2000/svg" xmlns:xlink="http://www.w3.org/1999/xlink" version="1.1" preserveAspectRatio="none" viewBox="0 0 800 600" width="1600" height="1200" style="background:#750817;">
      <path transform="translate(0, 0)" fill="#ffffff" fill-rule="evenodd" d="M634.7113849179811,427.62395566516875L635.743039594225,427.91208516157496L636.6279316805312,428.39230098891875L637.3660611769,429.0646031472L637.9439388747625,429.9133441544124L638.35670865895,430.93150962204993L638.6043705294625,432.1190995501124L638.6869244863,433.4761139386L638.6869244863,434.0804304853L630.4423201697,434.0804304853L630.6106654934501,435.19625782344997L630.9775719683,436.0746750897L631.568938874775,436.732948470975L632.3933993064,437.1883441544L633.46606117695,437.45381178027503L634.8020324,437.5423009889L636.345197867575,437.43007077307504L638.0394424719,437.0933801256L638.0394424719,438.8199988307L636.2264928315999,439.169639118425L634.4826079395,439.286185881L632.9933993064311,439.196617535675L631.7027518244249,438.9279124997L630.6106654934812,438.480070773075L629.7171403136,437.8530923558L629.0259532632438,437.0351067442937L628.532248227275,436.02287652847497L628.2360252056937,434.81640170834373L628.1372841985,433.4156822839L628.2969964287249,431.67395566519997L628.7761331194,430.2128045861L629.55526981,429.05812832705L630.6149820402,428.2185599817L631.9487949899,427.7005743702L633.5329676518,427.5279124997ZM601.2941259251124,427.6207182551L602.42560074525,427.89913552129997L603.4049172920124,428.3631642983L604.2320755654,429.0128045861L604.8930467884188,429.839962859475L605.365169090575,430.8451786868L605.6484424718687,432.028452068075L605.7428669323,433.3897830033L605.56373024165,435.15740890259997L605.0263201697,436.6271930753L604.173802184125,437.786185881025L603.0320755654,438.6214376796L601.62919786755,439.11999883065L600.0104928316,439.286185881L598.380996428725,439.12215710402495L596.9802770043,438.6300707731L595.834233838825,437.807768614825L594.9860324,436.6530923558L594.455097148175,435.18114990977506L594.2781187309,433.3897830033L594.4507806014001,431.62431537739997L594.9687662129,430.1610060249L595.81480937835,429.01280458607505L596.9543777237,428.1926607012L598.3615719682749,427.694099550075L600.0104928316,427.5279124997ZM541.7688770042563,427.6207182551L542.900351824425,427.89913552129997L543.8796683712063,428.3631642983L544.7068266446,429.0128045861L545.3677978676187,429.839962859475L545.839920169775,430.8451786868L546.1231935510687,432.028452068075L546.2176180115,433.3897830033L546.03848132085,435.15740890259997L545.5010712489,436.6271930753L544.6485532632748,437.786185881025L543.5068266446,438.6214376796L542.103948946725,439.11999883065L540.4852439107,439.286185881L538.855747507875,439.12215710402495L537.4550280834,438.6300707731L536.308984917925,437.807768614825L535.4607834791,436.6530923558L534.929848227275,435.18114990977506L534.75286981,433.3897830033L534.9255316805,431.62431537739997L535.443517292,430.1610060249L536.2895604575001,429.01280458607505L537.4291288028,428.1926607012L538.8363230474249,427.694099550075L540.4852439107,427.5279124997ZM500.93956842391253,427.6207182551L502.07104324405,427.89913552129997L503.05035979081254,428.3631642983L503.8775180642,429.0128045861L504.5384892872187,429.839962859475L505.010611589375,430.8451786868L505.2938849706688,432.028452068075L505.3883094311,433.3897830033L505.20917274045,435.15740890259997L504.6717626685,436.6271930753L503.81924468287497,437.786185881025L502.6775180642,438.6214376796L501.27464036635,439.11999883065L499.6559353304,439.286185881L498.0264389275,439.12215710402495L496.625719503,438.6300707731L495.47967633757503,437.807768614825L494.6314748987,436.6530923558L494.10053964695,435.18114990977506L493.9235612297,433.3897830033L494.09622310019995,431.62431537739997L494.6142087117,430.1610060249L495.46025187715,429.01280458607505L496.5998202225,428.1926607012L498.007014467075,427.694099550075L499.6559353304,427.5279124997ZM469.5762525196,427.7092074638L473.5129431671,427.7092074638L473.5129431671,429.5825887587L469.5762525196,429.5825887587L469.5762525196,434.7451786868L469.73164820305,435.953811780325L470.1978352534,436.7653225717L470.996396404525,437.23150962205L472.1316482031,437.3869053055L472.8136625916,437.3437398379L473.6683388505,437.1969772479L473.6683388505,439.0358261688L471.5445978434,439.286185881L469.69711582895,439.031509622025L468.350353239,438.2674808451L467.528051080725,436.97899163644996L467.2539503613,435.1682002695L467.2539503613,429.5825887587L464.9834467642,429.5825887587L464.9834467642,427.7092074638L467.2539503613,427.7092074638L467.6510726635,423.6084880393L469.5762525196,423.6084880393ZM407.6683215844,427.7092074638L411.6050122318,427.7092074638L411.6050122318,429.5825887587L407.6683215844,429.5825887587L407.6683215844,434.7451786868L407.82371726785004,435.953811780325L408.2899043182,436.7653225717L409.08846546924997,437.23150962205L410.2237172678,437.3869053055L410.9057316563,437.3437398379L411.7604079153,437.1969772479L411.7604079153,439.0358261688L409.6366669081,439.286185881L407.78918489372495,439.031509622025L406.4424223038,438.2674808451L405.620120145525,436.97899163644996L405.3460194261,435.1682002695L405.3460194261,429.5825887587L403.075515829,429.5825887587L403.075515829,427.7092074638L405.3460194261,427.7092074638L405.7431417282,423.6084880393L407.6683215844,423.6084880393ZM400.61233897837496,427.618559981725L401.9806843021,427.8905024278L401.9806843021,429.7379844422L400.6339217122,429.4876247299L399.3130584029,429.4012937947L397.45046847480006,429.640862140025L396.1447130791,430.359567176L395.374209481975,431.59841609685L395.1173749496,433.3811499098L395.3612598417,435.18114990977506L396.092914518,436.4372650177L397.30586415824996,437.175394514125L398.9936339424,437.4214376796L400.3576627194,437.3005743702L401.9806843021,436.9120851616L401.9806843021,438.7682002695L400.43320228774996,439.15668947812503L398.7605404173,439.286185881L397.3797850216,439.19338012560627L396.1727706331,438.914962859425L395.13949725180004,438.45093408245623L394.2799648777,437.8012937947L393.6076627194188,436.9703585429125L393.127446892075,435.96244487385L392.83931739566873,434.7775527875125L392.7432742302,433.4156822839L392.8447130791187,432.04625782347506L393.14902962587496,430.85597005370005L393.6562238704687,429.84481897457505L394.3662958129,429.0128045861L395.27169149638127,428.3631642983L396.364856964025,427.89913552129997L397.6457922158313,427.6207182551L399.1144972518,427.5279124997ZM386.7769432949812,427.62395566516875L387.808597971225,427.91208516157496L388.6934900575313,428.39230098891875L389.4316195539,429.0646031472L390.0094972517625,429.9133441544124L390.42226703595003,430.93150962204993L390.66992890646253,432.1190995501124L390.7524828633,433.4761139386L390.7524828633,434.0804304853L382.5078785467,434.0804304853L382.67622387045,435.19625782344997L383.0431303453,436.0746750897L383.634497251775,436.732948470975L384.4589576834,437.1883441544L385.53161955395,437.45381178027503L386.867590777,437.5423009889L388.41075624457494,437.43007077307504L390.1050008489,437.0933801256L390.1050008489,438.8199988307L388.29205120859996,439.169639118425L386.5481663165,439.286185881L385.05895768343123,439.196617535675L383.76831020142504,438.9279124997L382.67622387048124,438.480070773075L381.7826986906,437.8530923558L381.0915116402437,437.0351067442937L380.597806604275,436.02287652847497L380.3015835826937,434.81640170834373L380.2028425755,433.4156822839L380.3625548057249,431.67395566519997L380.8416914964,430.2128045861L381.62082818707506,429.05812832705L382.6805404173,428.2185599817L384.01435336692504,427.7005743702L385.5985260288,427.5279124997ZM356.27231786548754,427.62395566516875L357.30397254175,427.91208516157496L358.1888646280875,428.39230098891875L358.9269941245,429.0646031472L359.50487182231876,429.9133441544124L359.917641606475,430.93150962204993L360.16530347696875,432.1190995501124L360.2478574338,433.4761139386L360.2478574338,434.0804304853L352.0032531173,434.0804304853L352.171598441025,435.19625782344997L352.5385049158,436.0746750897L353.1298718223,436.732948470975L353.954332254,437.1883441544L355.026994124475,437.45381178027503L356.3629653475,437.5423009889L357.90613081512504,437.43007077307504L359.6003754194,437.0933801256L359.6003754194,438.8199988307L357.787425779175,439.169639118425L356.0435408871,439.286185881L354.5543322539937,439.196617535675L353.263684771975,438.9279124997L352.1715984410438,438.480070773075L351.2780732612,437.8530923558L350.5868862108437,437.0351067442937L350.093181174875,436.02287652847497L349.7969581532937,434.81640170834373L349.6982171461,433.4156822839L349.85792937630004,431.67395566519997L350.3370660669,430.2128045861L351.116202757575,429.05812832705L352.1759149878,428.2185599817L353.509727937425,427.7005743702L355.0939005993,427.5279124997ZM323.46866864578755,427.62395566516875L324.50032332205,427.91208516157496L325.3852154083875,428.39230098891875L326.1233449048,429.0646031472L326.7012226026625,429.9133441544124L327.11399238685,430.93150962204993L327.3616542573625,432.1190995501124L327.4442082142,433.4761139386L327.4442082142,434.0804304853L319.1996038976,434.0804304853L319.36794922135,435.19625782344997L319.7348556962,436.0746750897L320.326222602675,436.732948470975L321.1506830343,437.1883441544L322.223344904825,437.45381178027503L323.5593161278,437.5423009889L325.10248159545,437.43007077307504L326.7967261998,437.0933801256L326.7967261998,438.8199988307L324.9837765595,439.169639118425L323.2398916674,439.286185881L321.75068303429373,439.196617535675L320.46003555227503,438.9279124997L319.3679492213438,438.480070773075L318.4744240415,437.8530923558L317.7832369911437,437.0351067442937L317.289531955175,436.02287652847497L316.9933089335937,434.81640170834373L316.8945679264,433.4156822839L317.05428015662494,431.67395566519997L317.5334168473,430.2128045861L318.3125535379,429.05812832705L319.3722657681,428.2185599817L320.706078717775,427.7005743702L322.2902513796,427.5279124997ZM225.6776480891,427.6401427156L227.2488711107,427.959567176L227.2488711107,429.6343873199L225.63664089489998,429.30417149255004L223.9769286647,429.1940995501L222.509302765425,429.306329765925L221.5423962906,429.6430204134L221.01146103877502,430.17827221195L220.8344826215,430.886185881L220.925130103525,431.42575422635L221.1970725496,431.8530923558L221.71074161434998,432.17251681625L222.5093027654,432.3883441544L224.5208135568,432.7077686148L226.03376319702502,433.0919412767L227.0848423337,433.7092074638L227.69347542725,434.60704919037505L227.8963531251,435.8329484709L227.75174880855,436.83007077310003L227.3179358589,437.6804304853L226.592756002775,438.36244487382504L225.5740509668,438.8717973918L224.274770391275,439.1825887587L222.7078639165,439.286185881L220.65966247762503,439.16100602489996L218.8143387366,438.7854664566L218.8143387366,437.1020132192L220.72656895245,437.49697724795L222.71649701,437.6286319242L224.061101326575,437.52287652852505L224.9697344201,437.2056103415L225.4877200316,436.683308183175L225.6603819021,435.9624448738L225.5049862186,435.2372650177L224.9697344201,434.7538117803L223.9337631971,434.4602866004L221.9222524057,434.1494952335L220.407144492,433.73942329107496L219.3841229093,433.0789916364L218.801389096325,432.16172544935L218.607144492,430.9811499098L218.93736031935,429.55237293134996L219.9280078014,428.4602866004L220.67584952800001,428.05237293134377L221.59851139850002,427.761006024875L222.6959934129,427.58618588099375L223.9682955712,427.5279124997ZM190.2276840604,427.7092074638L194.1643747078,427.7092074638L194.1643747078,429.5825887587L190.2276840604,429.5825887587L190.2276840604,434.7451786868L190.38307974385003,435.953811780325L190.8492667942,436.7653225717L191.64782794525001,437.23150962205L192.7830797438,437.3869053055L193.4650941323,437.3437398379L194.3197703913,437.1969772479L194.3197703913,439.0358261688L192.1960293841,439.286185881L190.348547369725,439.031509622025L189.0017847798,438.2674808451L188.17948262152498,436.97899163644996L187.9053819021,435.1682002695L187.9053819021,429.5825887587L185.634878305,429.5825887587L185.634878305,427.7092074638L187.9053819021,427.7092074638L188.3025042042,423.6084880393L190.2276840604,423.6084880393ZM180.61229475928747,427.62395566516875L181.64394943554998,427.91208516157496L182.5288415218875,428.39230098891875L183.2669710183,429.0646031472L183.84484871611875,429.9133441544124L184.257618500275,430.93150962204993L184.50528037076873,432.1190995501124L184.5878343276,433.4761139386L184.5878343276,434.0804304853L176.3432300111,434.0804304853L176.51157533485002,435.19625782344997L176.8784818097,436.0746750897L177.469848716125,436.732948470975L178.2943091478,437.1883441544L179.36697101827502,437.45381178027503L180.7029422413,437.5423009889L182.24610770895,437.43007077307504L183.9403523133,437.0933801256L183.9403523133,438.8199988307L182.127402673,439.169639118425L180.3835177809,439.286185881L178.89430914779373,439.196617535675L177.603661665775,438.9279124997L176.51157533484377,438.480070773075L175.618050155,437.8530923558L174.92686310464373,437.0351067442937L174.43315806867497,436.02287652847497L174.13693504709374,434.81640170834373L174.0381940399,433.4156822839L174.1979062701,431.67395566519997L174.6770429607,430.2128045861L175.456179651375,429.05812832705L176.5158918816,428.2185599817L177.84970483122498,427.7005743702L179.4338774931,427.5279124997ZM204.7018725496,432.8631642983L204.767699887725,433.9493153774375L204.9651819021,434.87683336305L205.294318592725,435.64571825513747L205.7551099596,436.2559700537L207.099714276175,437.058847751525L209.0270524057,437.3264736508L210.9500739884,437.058847751525L212.2989948517,436.2559700537L212.75978621861873,435.64571825513747L213.08892290927497,434.87683336305L213.28640492366875,433.9493153774375L213.3522322618,432.8631642983L213.3522322618,423.6084880393L215.6745344201,423.6084880393L215.6745344201,432.6387038666L215.57363513952498,434.214243434975L215.2709372978,435.5739556652L214.76644089492498,436.717840557275L214.0601459309,437.6458981112L213.140181902125,438.35974703208126L211.994678305,438.869639118425L210.623635139525,439.17557437023123L209.0270524057,439.2775527875L207.4148221898625,439.17557437023123L206.03136895245,438.869639118425L204.87669269346247,438.35974703208126L203.9507934129,437.6458981112L203.240721470425,436.717840557275L202.7335272258,435.5739556652L202.429210679025,434.214243434975L202.3277718301,432.6387038666L202.3277718301,423.6084880393L204.7018725496,423.6084880393ZM551.2049777237,434.5984160968L551.3668482273,435.82863192415L551.8524597381,436.6530923558L552.6467043424,437.12575422635007L553.7172079395,437.2833081832L555.5128913928,436.9293513486L556.3351935510251,436.49985494575003L557.0409489467,435.9020132192L557.0409489467,427.7092074638L559.363251105,427.7092074638L559.363251105,439.0789916364L557.4380712489,439.0789916364L557.2913086589,437.8703585429L557.1790784431,437.8703585429L555.3574957093,438.9063297659L553.2510208892,439.268919694L551.4251216086,438.992660701175L550.0395100978,438.1638837227L549.533394989875,437.53420746371876L549.1718841985,436.750214657975L548.9549777236749,435.8119053054687L548.8826755654,434.7192794062L548.8826755654,427.7092074638L551.2049777237,427.7092074638ZM445.70234748365,427.6336678954L446.9994697858,427.9509340825L447.98795899442496,428.514243435L448.6915561167,429.3581283271L449.11889424622495,430.5192794062L449.2613402894,432.0343873199L449.2613402894,439.0789916364L447.3102611527,439.0789916364L447.1462323757,437.8530923558L447.0253690664,437.8530923558L446.30234748365,438.45093408245L445.4109805772,438.8976966724L443.3390381311,439.268919694L442.17788705199996,439.16963911845L441.1980309369,438.8717973918L440.41673597285,438.403452068075L439.8512683469,437.7753945141L439.5081028793,436.99841609682494L439.3937143901,436.1005743702L439.67644820305,434.7538117803L440.5246496419,433.7523729314L441.99659208792497,433.07683336305L444.1332827354,432.7077686148L446.9822035987,432.4228765285L446.9822035987,431.8789916364L446.89587266344995,430.98546645655006L446.6368798577,430.3077686148L446.203066908075,429.82863192417506L445.5922755412,429.5135240105L444.787239569975,429.3451786868L443.7534266203,429.2890635789L442.0354410088,429.4185599817L440.2570237426,429.8329484709L440.2570237426,428.0976966724L442.1131388505,427.6746750897L444.0728510808,427.5279124997ZM280.33629701,439.0789916364L278.3852178733,439.0789916364L278.2470883769,437.8012937947L278.1262250676,437.8012937947L276.5032034848,438.8804304853L275.51903082294996,439.17179739182495L274.4485272258,439.268919694L273.0111171539,439.1178405573L271.755002046,438.6646031472L270.712556002825,437.90273264362503L269.9161531251,436.8084880393L269.41759197404997,435.384027607625L269.2514049237,433.631509622L269.35500204600004,432.22701321913127L269.66579341290003,431.000574370225L270.1837790244,429.95219307528123L270.9089588805,429.0818693343L271.8283833409188,428.3982362407562L272.929102765375,427.90992688822496L274.2111171538687,427.6169412767062L275.6744265064,427.5192794062L278.0226279453,427.7178405573L278.0226279453,422.1926607012L280.33629701,422.1926607012ZM623.146773407175,427.8063297659L624.413679882,428.6415815645L624.8820252057315,429.2712578234812L625.2165575798251,430.05525062922504L625.4172770042813,430.99355998173127L625.4841834791,432.086185881L625.4841834791,439.0789916364L623.1618813208,439.0789916364L623.1618813208,432.1984160968L623.015118730875,430.972516816275L622.5748309611,430.1437398379L621.8604424719,429.67107796735L620.9086439107,429.5135240105L619.3892194503,429.8243153774L618.1115216086,430.7912218522L618.2064856374,432.068919694L618.2064856374,439.0789916364L615.9273489467,439.0789916364L615.9273489467,432.1984160968L615.7892194502999,430.961725449325L615.3748309611,430.1351067443L614.6863417524751,429.66891969395L613.7431762848,429.5135240105L612.1719532633,429.8761139386L611.4661978676249,430.31640170835L610.868356141,430.9293513486L610.868356141,439.0789916364L608.5546870762,439.0789916364L608.5546870762,427.7092074638L610.4712338388,427.7092074638L610.6179964287,428.9523729314L610.7561259251,428.9523729314L611.50720506185,428.343739837875L612.3791475079,427.8991355213L614.3733921122,427.5279124997L615.3834640546249,427.62719307525L616.2554065007,427.9250348019L616.9849029035499,428.43007077309994L617.5503705295,429.1509340825L618.4525288028499,428.419279406225L619.4323849179,427.9164017084L621.4697949899,427.5279124997ZM580.1056827597,430.1264736508L588.9200712489,430.1264736508L588.9200712489,423.6084880393L591.2769057813,423.6084880393L591.2769057813,439.0789916364L588.9200712489,439.0789916364L588.9200712489,432.1811499098L580.1056827597,432.1811499098L580.1056827597,439.0789916364L577.7488482273,439.0789916364L577.7488482273,423.6084880393L580.1056827597,423.6084880393ZM569.8149014647,427.6919412767L569.8149014647,429.7638837227L568.5631029036,429.6775527875L566.6897216086,430.031509622L565.824253982675,430.471797391825L565.1271316805,431.0847470321L565.1271316805,439.0789916364L562.8134626158,439.0789916364L562.8134626158,427.7092074638L564.7213762848,427.7092074638L564.9026712489,429.159567176L565.0408007453,429.159567176L565.7443978676,428.4991355213L566.6292899539,428.0027326436L567.6285705294749,427.685466456575L568.6753331194,427.5797110609ZM528.3671698627,430.4027326436L533.1671698627,423.6084880393L535.6017022368,423.6084880393L529.5067382081,432.3106463127L529.5067382081,439.0789916364L527.1326374886,439.0789916364L527.1326374886,432.3192794062L520.8736446829,423.6084880393L523.472205834,423.6084880393ZM515.2015684239,427.6919412767L515.2015684239,429.7638837227L513.9497698627,429.6775527875L512.0763885678,430.031509622L511.210920941875,430.471797391825L510.5137986397,431.0847470321L510.5137986397,439.0789916364L508.200129575,439.0789916364L508.200129575,427.7092074638L510.108043244,427.7092074638L510.2893382081,429.159567176L510.4274677045,429.159567176L511.13106482679996,428.4991355213L512.0159569131,428.0027326436L513.015237488675,427.685466456575L514.0620000786,427.5797110609ZM492.9338942462,425.4905024278L484.119505757,425.4905024278L484.119505757,430.4027326436L491.828858275,430.4027326436L491.828858275,432.2933801256L484.119505757,432.2933801256L484.119505757,439.0789916364L481.7626712246,439.0789916364L481.7626712246,423.6084880393L492.9338942462,423.6084880393ZM460.61290431817497,427.808488039275L461.9898827354,428.650214658L462.495997843325,429.285826168775L462.85750863469997,430.07899163639996L463.074415109525,431.029711060875L463.1467172678,432.1379844422L463.1467172678,439.0789916364L460.8244151095,439.0789916364L460.8244151095,432.2329484709L460.66038633252504,430.987624729925L460.1683000016,430.1523729314L459.35678921025,429.67323624072503L458.234487052,429.5135240105L456.4301705052,429.8588477515L455.597076980025,430.284027607625L454.8762136707,430.886185881L454.8762136707,439.0789916364L452.5625446059,439.0789916364L452.5625446059,427.7092074638L454.4790913685,427.7092074638L454.6258539585,428.9523729314L454.76398345489997,428.9523729314L456.6114654693,427.8991355213L458.7956381311,427.5279124997ZM436.5776338146,439.0789916364L434.2639647498,439.0789916364L434.2639647498,422.1926607012L436.5776338146,422.1926607012ZM426.2167906490938,423.52593408244377L427.630999282175,423.770358542875L428.82830144044374,424.1777326435937L429.8086971239,424.7480563846L430.5678697857875,425.4899628594187L431.11013597285,426.41208516157496L431.4354956850875,427.51442329106874L431.5439489225,428.7969772479L431.4332025196219,430.0636139385563L431.1009633109875,431.1613657371249L430.5472312965969,432.0902326436062L429.77200647645003,432.85021465799997L428.7752888505469,433.44131178030625L427.5570784188875,433.863524010525L426.1173751814719,434.11685134865627L424.4561791383,434.2012937947L423.43747410232504,434.175394514125L422.2115748218,434.0976966724L422.2115748218,439.0789916364L419.8547402894,439.0789916364L419.8547402894,423.9020132192L422.1856755412,423.5566894781L424.5856755412,423.4444592623ZM379.7732220188,422.1149628594L379.7732220188,423.9710779674L378.279696839,423.8415815645L376.95020043610003,424.00561034147506L376.0350925224,424.4976966724L375.49768245045,425.3523729314L375.3185457598,426.6214376796L375.3185457598,427.7092074638L379.2638695008,427.7092074638L379.2638695008,429.5825887587L375.3185457598,429.5825887587L375.3185457598,439.0789916364L373.0048766951,439.0789916364L373.0048766951,429.5825887587L370.734373098,429.5825887587L370.734373098,427.7092074638L373.0048766951,427.7092074638L373.0048766951,426.7250348019L373.0847328102062,425.64373983786874L373.32430115552495,424.6962578234749L373.7235817310562,423.88258875871867L374.2825745368,423.2027326436L374.99264647923746,422.6701786867875L375.84516446485,422.28978300335L376.8401284936375,422.0615455932875L377.9775385656,421.9854664566ZM369.8789365705,427.6919412767L369.8789365705,429.7638837227L368.6271380094,429.6775527875L366.7537567144,430.031509622L365.88828908847495,430.471797391825L365.1911667863,431.0847470321L365.1911667863,439.0789916364L362.8774977216,439.0789916364L362.8774977216,427.7092074638L364.7854113907,427.7092074638L364.9667063547,429.159567176L365.1048358511,429.159567176L365.8084329734,428.4991355213L366.6933250597,428.0027326436L367.69260563527496,427.685466456575L368.7393682252,427.5797110609ZM342.4989290774938,423.52593408244377L343.91313771057503,423.770358542875L345.11043986884374,424.1777326435937L346.0908355523,424.7480563846L346.8500082141875,425.4899628594187L347.39227440125,426.41208516157496L347.7176341134875,427.51442329106874L347.8260873509,428.7969772479L347.7153409480219,430.0636139385563L347.3831017393875,431.1613657371249L346.8293697249969,432.0902326436062L346.05414490485003,432.85021465799997L345.0574272789469,433.44131178030625L343.8392168472875,433.863524010525L342.3995136098719,434.11685134865627L340.7383175667,434.2012937947L339.7196125307,434.175394514125L338.4937132501,434.0976966724L338.4937132501,439.0789916364L336.1368787178,439.0789916364L336.1368787178,423.9020132192L338.4678139696,423.5566894781L340.8678139696,423.4444592623ZM305.9585578545,428.9178405573L306.0794211638,428.9178405573L307.8664715235,427.8905024278L309.9902125307,427.5279124997L311.7448887897,427.8063297659L313.0894931063,428.6415815645L313.58805425736875,429.27449523354375L313.944169365275,430.059567175975L314.1578384300187,430.99679739179373L314.2290614516,432.086185881L314.2290614516,439.0789916364L311.9067592933,439.0789916364L311.9067592933,432.1984160968L311.74057224295,430.963883722725L311.2420110919,430.1437398379L310.432658573925,429.68402760767503L309.3168312358,429.5307901976L307.4952485019,429.8761139386L305.9585578545,430.9034520681L305.9585578545,439.0789916364L303.6448887897,439.0789916364L303.6448887897,422.1926607012L305.9585578545,422.1926607012ZM301.8867948517,425.5250348019L296.2062193122,425.5250348019L296.2062193122,439.0789916364L293.8407516863,439.0789916364L293.8407516863,425.5250348019L288.1515430532,425.5250348019L288.1515430532,423.6084880393L301.8867948517,423.6084880393ZM264.052085499225,427.808488039275L265.4290639165,428.650214658L265.9351790243813,429.285826168775L266.296689815725,430.07899163639996L266.51359629053127,431.029711060875L266.5858984488,432.1379844422L266.5858984488,439.0789916364L264.2635962906,439.0789916364L264.2635962906,432.2329484709L264.09956751362495,430.987624729925L263.6074811827,430.1523729314L262.795970391275,429.67323624072503L261.673668233,429.5135240105L259.8693516863,429.8588477515L259.0362581611,430.284027607625L258.3153948517,430.886185881L258.3153948517,439.0789916364L256.001725787,439.0789916364L256.001725787,427.7092074638L257.9182725496,427.7092074638L258.0650351395,428.9523729314L258.2031646359,428.9523729314L260.0506466503,427.8991355213L262.2348193122,427.5279124997ZM252.5467962906,439.0789916364L250.2331272258,439.0789916364L250.2331272258,427.7092074638L252.5467962906,427.7092074638ZM247.6952998877,425.4905024278L238.8809113985,425.4905024278L238.8809113985,430.4027326436L246.5902639165,430.4027326436L246.5902639165,432.2933801256L238.8809113985,432.2933801256L238.8809113985,439.0789916364L236.5240768661,439.0789916364L236.5240768661,423.6084880393L247.6952998877,423.6084880393ZM164.6834352258,437.1624448738L173.1870323481,437.1624448738L173.1870323481,439.0789916364L162.3266006935,439.0789916364L162.3266006935,423.6084880393L164.6834352258,423.6084880393ZM444.3145776995,434.0631642983L443.123210793,434.2919412767L442.3289661887,434.6674808451L441.882203598725,435.200574370225L441.7332827354,435.9192794062L441.871412231825,436.65525062922495L442.2858007211,437.2056103415L442.98076474985,437.542300988975L443.9606208649,437.6545312048L445.5836424477,437.3610060249L446.9822035987,436.4631642983L446.9822035987,433.8041714925ZM598.5536582992249,429.6084880393L597.4809964287,430.3336678954L596.820564774075,431.57467508965004L596.6004208892,433.3811499098L596.8135503856,435.16010674435L597.4529388748001,436.4307901976L598.5185863568,437.19320026955L600.0104928316,437.4473369602L601.5023993064437,437.19481897458746L602.5680467884749,436.43726501774995L603.2074352776937,435.1746750896874L603.4205647741,433.4070491904L603.2004208891999,431.5854664565501L602.5399892345,430.3336678954L601.4716439107251,429.6084880393L600.0104928316,429.3667614206ZM539.02840937835,429.6084880393L537.9557475079,430.3336678954L537.2953158532,431.57467508965004L537.0751719683,433.3811499098L537.2883014647,435.16010674435L537.9276899539,436.4307901976L538.9933374359,437.19320026955L540.4852439107,437.4473369602L541.9771503855437,437.19481897458746L543.042797867575,436.43726501774995L543.6821863567937,435.1746750896874L543.8953158532,433.4070491904L543.6751719683,431.5854664565501L543.0147403136,430.3336678954L541.946394989875,429.6084880393L540.4852439107,429.3667614206ZM498.19910079802503,429.6084880393L497.1264389275,430.3336678954L496.46600727279997,431.57467508965004L496.2458633879,433.3811499098L496.4589928843062,435.16010674435L497.09838137352494,436.4307901976L498.1640288555562,437.19320026955L499.6559353304,437.4473369602L501.1478418052,437.19481897458746L502.2134892872,436.43726501774995L502.85287777639996,435.1746750896874L503.0660072728,433.4070491904L502.84586338792496,431.5854664565501L502.1854317333,430.3336678954L501.117086409525,429.6084880393L499.6559353304,429.3667614206ZM273.92838334095006,429.58474703210004L272.609678305,430.3423009889L271.832699887675,431.6264736508L271.5737070819,433.4588477515L271.78791571499374,435.16604199611254L272.43054161427506,436.38546645655003L273.5015847797438,437.1171211328125L275.0010452114,437.3610060249L276.6585991683,437.050214658L277.39241211795,436.63798444220004L278.0226279453,436.0401427156L278.0226279453,429.5825887587L275.7952898158,429.3322290465ZM632.205629522275,429.286905305475L631.2624640546,429.9538117803L630.6667806014,431.0761139386L630.4336870762,432.6818693343L636.5113849179,432.6818693343L636.2912410330249,431.0761139386L635.7171403136,429.9538117803L634.782607939525,429.286905305475L633.4984352777,429.0646031472ZM384.271187899275,429.286905305475L383.3280224316,429.9538117803L382.7323389784,431.0761139386L382.4992454532,432.6818693343L388.5769432949,432.6818693343L388.356799410025,431.0761139386L387.7826986906,429.9538117803L386.848166316525,429.286905305475L385.5639936547,429.0646031472ZM353.7665624698,429.286905305475L352.8233970022,429.9538117803L352.22771354894996,431.0761139386L351.9946200238,432.6818693343L358.0723178655,432.6818693343L357.852173980625,431.0761139386L357.2780732612,429.9538117803L356.3435408870499,429.286905305475L355.0593682252,429.0646031472ZM320.96291325015,429.286905305475L320.0197477825,429.9538117803L319.4240643293,431.0761139386L319.1909708041,432.6818693343L325.2686686458,432.6818693343L325.04852476092503,431.0761139386L324.4744240415,429.9538117803L323.5398916674,429.286905305475L322.2557190055,429.0646031472ZM178.1065393636,429.286905305475L177.163373896,429.9538117803L176.56769044275,431.0761139386L176.3345969176,432.6818693343L182.4122947593,432.6818693343L182.192150874425,431.0761139386L181.618050155,429.9538117803L180.6835177809,429.286905305475L179.399345119,429.0646031472ZM422.2115748218,425.395538399L422.2115748218,432.2933801256L424.4734453254,432.4401427156L426.00366115270003,432.343020413425L427.2101359728,432.0516535069L428.11445251960004,431.55956717597496L428.7381935268,430.8602866004L429.10078345485,429.945178686775L429.2216467642,428.8056103415L428.947546044775,427.178272211975L428.1252438865,426.0602866004L426.73963237569995,425.4063297659L424.7756035987,425.1883441544ZM338.4937132501,425.395538399L338.4937132501,432.2933801256L340.7555837537,432.4401427156L342.285799581075,432.343020413425L343.4922744012,432.0516535069L344.39659094800004,431.55956717597496L345.0203319552,430.8602866004L345.38292188325,429.945178686775L345.5037851926,428.8056103415L345.229684473175,427.178272211975L344.4073823149,426.0602866004L343.02177080409996,425.4063297659L341.0577420271,425.1883441544ZM252.04176031937502,423.045178686775L252.5122639165,423.2976966724L252.797156002825,423.6969772479L252.8921200316,424.2387038666L252.797156002825,424.7739556652L252.5122639165,425.1710779674L252.04176031937502,425.4106463127L251.3899617582,425.4905024278L250.738163197025,425.4106463127L250.2676595999,425.1710779674L249.982767513575,424.7739556652L249.8878034848,424.2387038666L249.982767513575,423.6969772479L250.2676595999,423.2976966724L250.738163197025,423.045178686775L251.3899617582,422.9610060249ZM524.2164021334,380.7877717763L524.622157529,381.374822136L524.768920119,382.2985631432L524.7948193995,383.5158293303L524.62863234915,386.88273580509997L524.1300711981,390.1287789705L523.337984867175,393.22158472595L522.2912222772,396.1115127835L521.015682708875,398.787771776325L519.5199992557,401.2223041504L517.8365460182749,403.363311344625L516.0149632844,405.1762609849L514.076833788,406.6417286108L512.0264740758,407.7402897619L509.90920788877503,408.426620697175L507.7703589679,408.6553976756L506.309207888775,408.5172681792L505.223596378,408.10287969L504.550215082975,407.4553976756L504.3257546513,406.6179876036L504.4379848672,405.9273401216L504.7401431406,405.3230235749L505.1890640039,404.9086350857L505.750215083,404.7446063087L506.3372654427,405.0985631432L506.8379848672,405.8755415605L507.4682006945,406.6525199777L507.914963284425,406.91798760365003L508.495538824,407.0064768123L510.2566899031,406.7215847259L512.1041719175,405.884174654L513.9516539319,404.5719444382L515.7732366657,402.8366926396L514.5732366657,398.7187070281L513.131510047,394.2208653015L511.5775532125,389.8525199777L510.791941701725,387.86475019355L510.023596378,386.1143904813L509.2789920614,384.6510811288L508.5646035722,383.5071962367L507.90417191755,382.76906674035L507.3214381046,382.5230235749L506.768920119,382.6352537907L506.3113661621,382.9546782511L505.9401431406,382.4884912008L506.7257546513,381.8323760928L507.6926611262,381.2194264526L509.004891342,380.7618724957L510.8005747952,380.5805775317L511.9012942197,380.710073934575L512.9243158024,381.0985631432L513.8631647232751,381.828059546075L514.7113661621,382.9978437187L515.3027330686,384.1287789705L515.9199992557,385.4669084669L517.1804309103,388.6784192583L518.4581287521,392.520145877L519.7617258744,396.8539588267L520.8063301909,394.348203431L521.6264740758,391.7000019921L522.16388414775,388.93957033745L522.3430208384,386.0971242943L522.2135244355,384.3446063087L521.9113661621,383.101440841L521.6092078888,382.2208653015L521.4797114859,381.5733832871L521.7041719175,381.0985631432L522.2480568096,380.7877717763L522.895538824,380.6323760928L523.4480568096,380.5805775317ZM485.18830664102495,370.9762609849L485.9955008856,371.2223041504L486.988306641,372.0251818482L487.3767958496,373.0352537907L487.4372275043,373.9762609849L487.4372275043,398.3474840065L487.3595296626,398.9345343662L486.9624073604,399.5647501936L486.0645656338,400.0827358051L485.37607642517503,400.244606308675L484.4847095187,400.2985631432L483.599817432375,400.2402897619L482.9307526842,400.065469618L482.1019757058,399.5129516324L481.7652850583,398.8568365245L481.6962203101,398.3129516324L481.6962203101,374.1834552295L481.4458605978,373.2424480353L481.107011676975,372.938131488525L480.5911843389,372.8366926396L480.03866635320003,372.9402897619L479.5465800223,373.2510811288L479.1753570007,372.8021602655L480.1249972885,372.10287969L481.2731987273,371.4899300497L482.6113282237,371.0582753734L484.1134864971,370.8942465964ZM474.695569736775,370.9762609849L475.5027639814,371.2223041504L476.4955697368,372.0251818482L476.8840589454,373.0352537907L476.9444906001,373.9762609849L476.9444906001,398.3474840065L476.8667927583,398.9345343662L476.4696704562,399.5647501936L475.5718287296,400.0827358051L474.883339520925,400.244606308675L473.9919726145,400.2985631432L473.10708052814994,400.2402897619L472.4380157799,400.065469618L471.6092388015,399.5129516324L471.272548154,398.8568365245L471.2034834058,398.3129516324L471.2034834058,374.1834552295L470.9531236936,373.2424480353L470.61427477275,372.938131488525L470.0984474346,372.8366926396L469.545929449,372.9402897619L469.053843118,373.2510811288L468.6826200965,372.8021602655L469.6322603842,372.10287969L470.7804618231,371.4899300497L472.1185913195,371.0582753734L473.6207495929,370.8942465964ZM461.682614476,380.9000019921L462.934413037175,381.31223220797494L464.0308159149,381.9100739346L464.9480821019,382.69568544537503L465.6624705911,383.6712250137L466.1157080012,384.84748400649994L466.2667871379,386.2525199777L466.2667871379,396.8194264526L466.2840533249,397.1906494741L466.3790173537,397.5618724957L466.6034777854,397.8467645821L467.0351324616,397.9589947979L467.6567151954,397.7086350857L468.1747008069,397.1906494741L468.6408878573,397.5877717763L467.9675065623,398.4424480353L467.0178662746,399.3230235749L465.7056360587,400.0136710569L464.0049166343,400.2985631432L462.88908929615,400.121584725925L461.9070749077,399.5906494741L461.15167922422495,398.701440841025L460.7157080012,397.4323760928L459.46390944,398.7791386828L458.1516792242,399.6597142223L456.7962835408,400.1431674598L455.4149885767,400.2985631432L453.6797367782,400.0136710569L452.1775785048,399.1244624238L451.577578504775,398.427340121625L451.1070749077,397.5446063087L450.802758360925,396.467627891425L450.701319512,395.1705055892L450.86966483572496,393.62302357485004L451.3747008069,392.3820163806L452.153837497575,391.38705235185L453.1444849796,390.5604336468L455.6308159149,389.3000019921L458.4883698717,388.1949660209L459.422902245775,387.65971422232496L460.0682259868,386.9172681792L460.43729073497497,386.05180055330004L460.5603123177,385.1647501936L460.357434619875,383.91942645255006L459.7488015264,382.9460451576L458.78836987169996,382.3244624238L457.5300964904,382.1172681792L456.355995771,382.2640307691L455.4149885767,382.6352537907L454.8020389364,383.1359732151L454.5775785048,383.6453257331L454.8711036846,384.0510811288L455.5099526055,384.3359732151L456.1574346199,384.7848940785L456.37757850475003,385.147484006525L456.4509597997,385.665469618L456.2869310228,386.3906494741L455.8552763465,386.9690667403L455.2250605192,387.3661890425L454.465348289,387.5043185389L453.52002454795,387.32518184825L452.773261958,386.7877717763L452.2876504472,385.963311344625L452.1257799436,384.9057573878L452.274700806925,383.84172861085005L452.7214633969,382.9460451576L453.41426915225003,382.20575738779996L454.2840533249,381.6079156612L456.4682259868,380.8309372439L458.8941252674,380.5805775317ZM449.3479804821,371.1187070281L449.78826825187497,371.423023574875L450.0731603382,371.8870523518L450.2199229282,372.4741027116L450.3062538634,373.0697861648L450.332153144,373.6136710569L450.332153144,374.0194264526L450.26740494255,374.949642279875L450.0731603382,376.1690667403L449.3652466692,379.2510811288L448.3465416332,382.9374120641L447.1551747267,386.8913688986L445.894743072,390.793527172L444.7033761656,394.3158293303L444.17244091375,395.83741206407507L443.7019373166,397.1561171L443.31128983465,398.217987603625L443.0199229282,398.9690667403L442.5969013454,399.6597142223L442.0271171728,400.065469618L441.3278365972,400.2467645821L440.5335919929,400.2985631432L439.3163258058,400.1431674598L438.5566135756,399.7719444382L438.1335919929,399.2884912008L437.9350308418,398.8223041504L430.8386279641,376.557555949L430.4242394749,375.4870523518L429.8976207699,374.7618724957L429.1551747267,374.3561171L428.0933042231,374.2266206972L426.8760380361,374.4769804094L425.5551747267,375.2194264526L424.5019373166,376.4539588267L424.17819630944996,377.25467825112503L424.0702826404,378.1719444382L424.2343114174,379.1215847259L424.5969013454,379.6568365245L425.0199229282,379.8812969562L425.3220812015,379.9244624238L426.0904265253,379.7690667403L426.6343114174,379.4323760928L427.0918653742,379.0956854454L427.5839517051,378.9402897619L428.0674049425,379.0352537907L428.5335919929,379.3633113446L428.896181921,379.9589947979L429.0429445109,380.848203431L428.7580524246,382.1345343662L428.0069732879,383.0410091864L426.9623689713,383.5848940785L425.7882682519,383.757555949L424.1911459497,383.4467645821L423.0170452303,382.5834552295L422.2832322807,381.3230235749L422.0328725684,379.7776998339L422.220642352575,377.95827537345L422.7839517051,376.3848940785L423.649419331025,375.0532394022L424.7609301224,373.9589947979L426.079635158375,373.11295163245L427.5666855181,372.5086350857L429.16164954687497,372.152519977775L430.80409559,372.0338149418L432.506973287875,372.17626098495003L433.8688437915,372.6035991144L434.954455302275,373.25539767557507L435.8112898346,374.0712250137L436.9767574605,376.0827358051L437.7451027843,378.284174654L442.7954624965,393.5647501936L443.48610997852495,391.72158472595L444.2112898346,389.6798581072L445.5925847987,385.3460451576L446.6285560217,381.0640307691L446.93934738859997,379.1043185389L447.0429445109,377.3690667403L446.999779043275,376.235973215125L446.8702826404,375.3057573878L446.4904265253,373.9330955173L446.1019373166,373.0266206972L445.9379085397,372.3705055892L446.1537358778,371.7057573878L446.6803545828,371.248203431L447.3796351584,370.9805775317L448.0875488274,370.8942465964ZM407.84950925907503,380.682016380625L408.6977106979,380.9863329274L409.932243072,382.0395703374L410.6142574605,383.5158293303L410.8300847987,385.1647501936L410.8300847987,396.7417286108L410.8473509857,397.1043185389L410.9423150145,397.484174654L411.1754085397,397.7690667403L411.5984301224,397.8812969562L412.2286459497,397.6309372439L412.7552646548,397.1129516324L413.2041855181,397.5100739346L412.5135380361,398.3820163806L411.4948330001,399.2884912008L410.1308042231,400.0050379633L408.3782862375,400.2985631432L406.9451927123,400.0827358051L405.9178545828,399.5043185389L405.296271849,398.6410091864L405.0890776044,397.5877717763L405.0890776044,385.0870523518L405.0113797627,384.5604336468L404.7955524246,384.0597142223L404.4329624965,383.6971242943L403.9063437915,383.5589947979L402.9049049425,383.8438868842L401.9897970289,384.5086350857L401.2732502663,385.2597142223L400.84159559,385.8208653015L400.84159559,398.3474840065L400.7638977483,398.9345343662L400.4013078202,399.5647501936L399.5293653742,400.0827358051L398.8473509857,400.244606308675L397.9581423526,400.2985631432L397.07540853965,400.2402897619L396.3955524246,400.065469618L395.5408761656,399.5129516324L395.1782862375,398.8568365245L395.1005883958,398.3129516324L395.1005883958,385.0870523518L395.022890554,384.5604336468L394.7984301224,384.0597142223L394.4272071008,383.6971242943L393.9005883958,383.5589947979L392.9077826404,383.8438868842L392.0013078202,384.5086350857L391.2761279641,385.2597142223L390.8358401943,385.8208653015L390.8358401943,398.3474840065L390.7581423526,398.9345343662L390.3955524246,399.5647501936L389.532243072,400.0827358051L388.85670350370003,400.244606308675L387.969653144,400.2985631432L387.0890776044,400.2402897619L386.4156963094,400.065469618L385.5437538634,399.5129516324L385.1638977483,398.8568365245L385.0948330001,398.3129516324L385.0948330001,383.8697861648L384.8444732879,382.9287789705L384.50130782024996,382.62446242379997L383.9897970289,382.5230235749L383.4459121368,382.6352537907L382.9624588994,382.9546782511L382.5653365972,382.4884912008L383.532243072,381.7892106252L384.6804445109,381.1762609849L386.0099409138,380.7532394022L387.5034660936,380.5805775317L388.58476105765,380.682016380625L389.3941135756,380.9863329274L390.386919331,381.9446063087L390.7667754461,383.1187070281L390.8358401943,384.1374120641L392.7264876764,382.3589947979L393.6329624965,381.70287969L394.6516675325,381.1330955173L395.7394373166,380.7359732151L396.8617394749,380.5805775317L397.86317832385,380.67985810724997L398.7092214893,380.9776998339L399.9437538634,381.9187070281L400.6257682519,383.0755415605L400.84159559,384.1374120641L402.732243072,382.3589947979L403.6300847987,381.70287969L404.6487898346,381.1330955173L405.7365596188,380.7359732151L406.84159559,380.5805775317ZM374.3970264016,380.723023574875L376.007098344,381.1503617044L377.48119906345005,381.87338328709995L378.7610551786,382.90287969L379.83155877567503,384.23453436625005L380.6603357541,385.8812969562L381.191271005925,387.851800553275L381.3682494232,390.1546782511L381.191271005925,392.4661890425L380.6603357541,394.4971242943L379.83155877567503,396.236692639625L378.7610551786,397.6741027116L377.48119906345005,398.8115127835L376.007098344,399.6338149418L374.3970264016,400.13237609285L372.7092566174,400.2985631432L371.027961653375,400.14100918637496L369.4200479843,399.6683473159L367.9437889915,398.893527172025L366.6574580563,397.812232208L365.5912710059,396.422304150425L364.7581774807,394.7215847259L364.22724222895,392.723023574875L364.0502638117,390.4223041504L364.22724222895,388.1237429993L364.7581774807,386.1316566684L365.5912710059,384.43741206407503L366.6574580563,383.0496422799L367.9437889915,381.97050558925L369.4200479843,381.2021602655L371.027961653375,380.73597321515L372.7092566174,380.5805775317ZM357.5822894412,380.8050379633L359.3434405203,381.4870523518L360.0017139016,382.002879689975L360.4916419591,382.6352537907L360.78948368575004,383.38849120074997L360.8887642613,384.2496422799L360.7722174987,384.91223220797497L360.4225772109,385.484174654L359.8614261318,385.872663862625L359.1103469951,386.0021602655L358.40459159945,385.91582933024995L357.8930808081,385.6568365245L357.575814621,385.24892285545L357.4700592253,384.7158293303L357.6686203764,384.0942465964L358.1002750527,383.7316566684L358.5405628225,383.4899300497L358.7391239735,383.2223041504L358.598836203725,382.749642279925L358.1779728944,382.3848940785L357.53696570017496,382.15180055332496L356.7362462757,382.0741027116L355.9247354843,382.1863329274L355.2427210958,382.557555949L354.7765340455,383.1877717763L354.603872175,384.0942465964L354.737685124625,384.823742999325L355.1391239735,385.5446063087L356.4686203764,387.0467645821L358.1866059879,388.6525199777L359.9045915994,390.4136710569L361.2340880023,392.3820163806L361.63552685125,393.46978616480004L361.7693398009,394.6266206972L361.654951311675,395.90000199215L361.311785844,397.0266206972L360.75495131165,397.99136889859994L359.9995556282,398.79640486979997L359.06286498070006,399.44172861085L357.9448793692,399.9100739346L356.66933980087504,400.20144084105004L355.2599872829,400.2985631432L354.031929728925,400.2057573878L352.9204189376,399.9273401216L351.0643038296,399.029498395L349.6657426786,397.8985631432L348.7679009519,396.8194264526L349.4240160599,396.3532394022L350.0455987937,396.957555949L350.8743757721,397.5618724957L351.858548434,398.0194264526L352.9204189376,398.2007214166L354.14631821815,398.03885091300003L355.13049088,397.5532394022L355.777972894375,396.7546782511L355.9938002325,395.6366926396L355.875095196525,394.915829330225L355.5189800886,394.1690667403L354.3448793692,392.6064768123L352.8081887217,390.9402897619L351.2801311678,389.1705055892L350.0973973548,387.2798581072L349.747757067075,386.287052351825L349.6312103045,385.2597142223L349.749915340475,384.152519977725L350.1060304484,383.1964048698L350.66286498072503,382.39568544537497L351.3837282901,381.7374120641L353.1966779304,380.8741027116L355.294519657,380.5805775317ZM343.4423279137,380.8050379633L345.2034789928,381.4870523518L345.861752374125,382.002879689975L346.3516804317,382.6352537907L346.649522158275,383.38849120074997L346.7488027338,384.2496422799L346.632255971225,384.91223220797497L346.2826156835,385.484174654L345.72146460435,385.872663862625L344.9703854677,386.0021602655L344.26463007197503,385.91582933024995L343.7531192806,385.6568365245L343.43585309357496,385.24892285545L343.3300976979,384.7158293303L343.528658849,384.0942465964L343.9603135252,383.7316566684L344.400601295,383.4899300497L344.5991624461,383.2223041504L344.4588746763,382.749642279925L344.0380113669,382.3848940785L343.397004172675,382.15180055332496L342.5962847482,382.0741027116L341.7847739569,382.1863329274L341.1027595684,382.557555949L340.636572518,383.1877717763L340.4639106475,384.0942465964L340.59772359715,384.823742999325L340.9991624461,385.5446063087L342.328658849,387.0467645821L344.0466444605,388.6525199777L345.764630072,390.4136710569L347.0941264749,392.3820163806L347.495565323775,393.46978616480004L347.6293782734,394.6266206972L347.5149897842,395.90000199215L347.1718243166,397.0266206972L346.6149897842,397.99136889859994L345.8595941008,398.79640486979997L344.9229034533,399.44172861085L343.8049178418,399.9100739346L342.52937827339997,400.20144084105004L341.1200257554,400.2985631432L339.891968201475,400.2057573878L338.7804574101,399.9273401216L336.9243423022,399.029498395L335.5257811511,397.8985631432L334.6279394245,396.8194264526L335.2840545324,396.3532394022L335.9056372662,396.957555949L336.7344142446,397.5618724957L337.7185869065,398.0194264526L338.7804574101,398.2007214166L340.00635669067503,398.03885091300003L340.9905293526,397.5532394022L341.638011366975,396.7546782511L341.8538387051,395.6366926396L341.735133669125,394.915829330225L341.3790185612,394.1690667403L340.2049178418,392.6064768123L338.6682271943,390.9402897619L337.1401696403,389.1705055892L335.9574358274,387.2798581072L335.60779553960003,386.287052351825L335.491248777,385.2597142223L335.609953812975,384.152519977725L335.9660689209,383.1964048698L336.52290345327503,382.39568544537497L337.2437667626,381.7374120641L339.0567164029,380.8741027116L341.1545581295,380.5805775317ZM326.12293858145006,380.723023574875L327.7330105239,381.1503617044L329.20711124335,381.87338328709995L330.4869673585,382.90287969L331.557470955575,384.23453436625005L332.386247934,385.8812969562L332.917183185825,387.851800553275L333.0941616031,390.1546782511L332.917183185825,392.4661890425L332.386247934,394.4971242943L331.557470955575,396.236692639625L330.4869673585,397.6741027116L329.20711124335,398.8115127835L327.7330105239,399.6338149418L326.12293858145006,400.13237609285L324.4351687973,400.2985631432L322.75387383327495,400.14100918637496L321.1459601642,399.6683473159L319.6697011714,398.893527172025L318.3833702362,397.812232208L317.3171831858,396.422304150425L316.4840896606,394.7215847259L315.953154408775,392.723023574875L315.7761759915,390.4223041504L315.953154408775,388.1237429993L316.4840896606,386.1316566684L317.3171831858,384.43741206407503L318.3833702362,383.0496422799L319.6697011714,381.97050558925L321.1459601642,381.2021602655L322.75387383327495,380.73597321515L324.4351687973,380.5805775317ZM310.01005779232503,370.9762609849L310.8172520369,371.2223041504L311.8100577923,372.0251818482L312.198547001,373.0352537907L312.2589786556,373.9762609849L312.2589786556,398.3474840065L312.1812808139,398.9345343662L311.7841585117,399.5647501936L310.8863167851,400.0827358051L310.197827576475,400.244606308675L309.30646067,400.2985631432L308.421568583675,400.2402897619L307.7525038355,400.065469618L306.9237268571,399.5129516324L306.5870362096,398.8568365245L306.5179714614,398.3129516324L306.5179714614,374.1834552295L306.2676117492,373.2424480353L305.92876282829997,372.938131488525L305.4129354902,372.8366926396L304.8604175046,372.9402897619L304.3683311736,373.2510811288L303.997108152,372.8021602655L304.9467484398,372.10287969L306.0949498787,371.4899300497L307.4330793751,371.0582753734L308.9352376484,370.8942465964ZM292.72670572395623,372.13957033748125L294.900087018925,372.45683652452504L296.71519493260627,372.9856135029313L298.172029465,373.7259012727L299.28623809808124,374.6685271719688L300.082101407425,375.804318538875L300.55961939303126,377.13327537341877L300.7187920549,378.6553976756L300.5461301844,380.1316566684L300.0885762276,381.357555949L299.4497273067,382.3417286108L298.7159143571,383.084174654L297.785698529725,383.76834731584995L296.7389359398,384.284174654L296.7389359398,384.5690667403L298.38785680312503,384.929498395L299.8641157959,385.6136710569L301.0036841412,386.50287969L302.0051229902,387.7892106252L302.7130366592,389.5503617044L302.9806625585,391.8381314885L302.803684141225,393.70719623675L302.2727488894,395.3776998339L301.3900150765,396.83021781945L300.1576409758,398.0453257331L298.58425968082497,399.007915661175L296.6612380981,399.720145877L294.39720932112505,400.15395882664995L291.8008064434,400.2985631432L289.476346011725,400.21870702809997L287.6310222707,399.9791386828L286.19577047215,399.58849120075L285.1187920549,399.0553976756L284.36339637145,398.382016380625L283.8928927743,397.5877717763L283.5734683139,395.6366926396L283.5734683139,375.1762609849L283.4844395369249,374.7268005532437L283.217353206,374.40575738777494L282.77220932112493,374.21313148849373L282.1490078823,374.1489228554L280.0597992492,374.4597142223L278.1518855801,375.2971242943L276.7619575225,376.5661890425L276.3540438535,377.338850913025L276.2180726305,378.1719444382L276.3821014074,379.1215847259L276.7446913355,379.6568365245L277.1677129182,379.8812969562L277.4698711916,379.9244624238L278.2382165153,379.7690667403L278.7821014074,379.4323760928L279.2396553643,379.0956854454L279.7317416952,378.9402897619L280.2151949326,379.0352537907L280.681381983,379.3633113446L281.043971911,379.9589947979L281.190734501,380.848203431L280.9058424146,382.1345343662L280.1547632779,383.0410091864L279.1101589614,383.5848940785L277.936058242,383.757555949L276.3216697528,383.4553976756L275.0957704722,382.6007214166L274.3274251484,381.3316566684L274.0684323427,379.7776998339L274.21303665925006,378.316548754725L274.6468496089,377.0410091864L275.34613018445,375.9316566684L276.2871373787,374.9863329274L277.4461301844,374.202879689975L278.8166337815,373.5618724957L282.0885762276,372.6553976756L285.9389359398,372.1719444382L290.1950510477,372.0338149418ZM502.0350003797,380.65611710005L503.1529859912,380.8827358051L504.09399318545,381.23021781945L504.8623385092,381.6856135029L505.8810435452,382.8510811288L506.2177341927,384.2496422799L506.092554336575,385.08489407847503L505.7170147682,385.829498395L504.3702521783,387.0553976756L496.9803241207,391.4151099058L497.1529859912,392.7100739346L497.6709716027,394.1259012727L498.4997485812,395.4812969562L499.6393169265,396.629498395L501.0724104517,397.4323760928L502.7990291567,397.7345343662L504.0076622502,397.5877717763L505.0608996603,397.1733832871L505.993273761,396.5604336468L506.8911154876,395.8266206972L507.357302538,396.2755415605L506.2522665668,397.5446063087L504.629244984,398.848203431L502.4019068545,399.8582753734L501.0421946243,400.15611710005L499.5011874301,400.2553976756L497.89759030775,400.108635085675L496.3328421063,399.6683473159L494.87600757395,398.932376092875L493.5961514589,397.8985631432L492.51701476824996,396.57769983385003L491.6796046963,394.9633113446L491.13571980422495,393.059714222325L490.9544248402,390.8539588267L491.06233850924997,389.21798760365004L491.3860795164,387.7287789705L491.893273761025,386.3755415604751L492.5515471423,385.1647501936L494.2781658473,383.1618724957L496.3414751999,381.7287789705L498.5601802358,380.8741027116L500.7357198042,380.5805775317ZM291.0410942132,373.665469618L290.4022452923,373.9762609849L289.9792237096,374.5719444382L289.8151949326,375.4784192583L289.8151949326,396.6640307691L289.9015258679,397.484174654L290.2382165153,398.1489228554L290.9288639974,398.5978437187L292.0770654362,398.7618724957L293.0677129182,398.61510990577494L293.9677129182,398.174822136L294.76843234265,397.50144084105L295.443971911,396.6553976756L296.4022452923,394.5834552295L296.7389359398,392.2870523518L296.6245474506,390.6877717763L296.281381983,389.2913688986L295.73102227072496,388.08921062522495L294.9950510477,387.0899300497L294.099367594475,386.29352717200004L293.0526050046,385.7000019921L291.882820831925,385.30719623675L290.6180726305,385.1302178195L290.9979287456,384.1719444382L292.5691517671,383.9474840065L293.26843234267494,383.589210625225L293.881381983,383.0323760928L294.392892774325,382.2618724957L294.7878568031,381.2625919202L295.040374788725,380.00647681225L295.1245474506,378.465469618L294.8482884578,376.410793359L294.1058424146,374.865469618L293.043971911,373.9071962367L291.8008064434,373.5705055892ZM371.88263791235,382.65899479790005L371.2329976246,383.1705055892L370.736594746925,383.96043364677496L370.3696882721,384.9661890425L369.9811990635,387.5043185389L369.8862350347,390.4223041504L369.9811990635,393.3489228554L370.3696882721,395.9043185389L370.736594746925,396.91654875475L371.2329976246,397.7086350857L371.88263791235,398.22014587699994L372.7092566174,398.3906494741L373.53587532245,398.211512783475L374.1855156102,397.6741027116L374.68191848792503,396.853958826675L375.0488249627,395.8093545101L375.4545803584,393.1848940785L375.5581774807,390.2323760928L375.4545803584,387.3402897619L375.0488249627,384.8625919202L374.68191848792503,383.891368898575L374.1855156102,383.1359732151L373.53587532245,382.65036170437503L372.7092566174,382.4884912008ZM323.60855009224997,382.65899479790005L322.9589098045,383.1705055892L322.46250692682503,383.96043364677496L322.095600452,384.9661890425L321.7071112433,387.5043185389L321.6121472146,390.4223041504L321.7071112433,393.3489228554L322.095600452,395.9043185389L322.46250692682503,396.91654875475L322.9589098045,397.7086350857L323.60855009224997,398.22014587699994L324.4351687973,398.3906494741L325.26178750235,398.211512783475L325.9114277901,397.6741027116L326.407830667775,396.853958826675L326.7747371426,395.8093545101L327.1804925383,393.1848940785L327.2840896606,390.2323760928L327.1804925383,387.3402897619L326.7747371426,384.8625919202L326.407830667775,383.891368898575L325.9114277901,383.1359732151L325.26178750235,382.65036170437503L324.4351687973,382.4884912008ZM458.1948446918,389.6539588267L457.1588734688,390.5345343662L456.4509597997,391.9589947979L456.1833339005,393.9359732151L456.22434109472493,394.92877897052506L456.3473626774,395.7316566684L456.7790173537,396.8625919202L457.4006000875,397.4496422799L458.1516792242,397.6223041504L459.0667871379,397.3719444382L459.8178662746,396.7244624238L460.318585699,395.8438868842L460.5085137566,394.8683473159L460.5085137566,390.3100739346L460.2063554832,389.593527172L459.4380101595,389.3518005533ZM498.98967663869996,382.5899300497L498.4652162071,382.8942465964L497.6796046963,383.9302178195L497.1961514589,385.3805775317L496.919892466,387.012232208L496.8076622502,388.6007214166L496.7903960632,389.8784192583L500.7357198042,387.6165487547L501.1414751999,387.3230235749L501.3918349121,386.9863329274L501.5299644085,386.50287969L501.5817629696,385.7776998339L501.4781658473,384.7417286108L501.1328421063,383.6712250137L500.5112593725,382.8251818482L499.6134176459,382.4884912008ZM374.1763665965002,156.63184253807492L376.4130173107037,156.6912307310597L378.40846059494083,156.7780288592718L380.0640206824076,156.88675493566672L381.2810218063002,157.01192697319993L378.05395876601796,158.92536886786047L375.22159879295486,161.0704247151718L372.79490586119886,163.44846501189093L370.7848439448377,166.06086025477492L369.2023770179594,168.90898094058082L368.0584690546517,171.99419756606557L367.3640840290027,175.31788062798626L367.1301859151002,178.88140062309992L363.8236340626868,181.50887133037259L361.0049790572424,184.52967460808742L358.66873891172384,187.88762008903979L356.80943163908773,191.52651740602494L355.4215752522907,195.39017619183824L354.4996877642893,199.42240607927494L354.0382871880403,203.5670167011304L354.0318915365002,207.76781769019993L351.64722717209236,207.10084259979524L349.6901577971627,206.20362405348743L347.7988722667768,204.8897744917859L346.76483246049577,204.01836696782163L345.6115594360002,202.97290635519994L345.7189150156389,204.20772393699718L346.09762895397836,205.3740166807343L346.70110436114123,206.48000756697922L347.4827443472502,207.53391957629992L349.39413049679706,209.51839888644054L351.4590122836002,211.39323845569993L349.935019885183,214.0063189469921L348.0382523677377,216.2466243192374L345.8344935757986,218.13608252061397L343.3895273539002,219.69662149929994L338.09758252690017,222.40106844133743L332.6302141144002,224.84238000519994L331.3711844231361,225.47646317332965L330.2766143432127,226.23115005646247L329.42325169325795,227.227044369564L328.8878442919002,228.58474982759995L329.12242765418085,229.4753443062259L329.3172666103892,230.161734767439L329.69186905843765,231.11377318418744L330.21996714374234,231.82460417096712L331.1098763740002,232.67796682089994L334.38444996870015,235.25084607389994L335.54708805439446,236.2933372768849L336.40547585911736,237.2535986741984L336.962354376391,238.17000417515328L337.2204645997376,239.08092768906246L337.18254752267967,240.02474312523884L336.85134413873925,241.03982439299526L336.2295954414386,242.16454540164466L335.32004242430014,243.43728006049994L334.3917592847236,244.6451445392984L333.50733204151265,245.99554068128745L333.23231902477187,246.72761436787397L333.14917555459544,247.49943246053277L333.3182034884745,248.312365456022L333.79970468390013,249.16778385109995L334.89244743478446,250.17464213830777L336.31410940835013,250.99511286598747L339.5302084745001,252.55930650269997L338.17067568747507,254.26968646066246L336.7234311077001,256.0677782113L336.944537918497,257.2317867937562L337.26432049610014,258.0120562831L338.2437688481001,258.9915046351L339.3029344283288,259.9880841966035L340.05099724377976,261.0435951188282L340.5277017005253,262.15118491797L340.7727922046376,263.30400111022504L340.7271089792516,265.71790273885944L340.2319028162001,268.2304801343L339.5009712103251,270.97878297265004L338.9454631898001,273.727085811L338.8198343199989,275.64075612183024L338.9710457959594,277.34885191848593L339.4018386112028,278.8541141944893L340.11495375925006,280.1592839433625L341.11313223362237,281.2671021586279L342.3991150278407,282.18030983380777L343.97564313542625,282.90164796242436L345.84545754990006,283.433857538L349.58782737240006,283.7847047089L357.07256701730006,283.550806595L359.27632580925336,283.60516963317735L361.41430075666415,283.8541432114437L363.48649185953343,284.29498633627577L365.4928991178625,284.92495801415L369.30836210090473,286.7413230549312L372.86068970580004,289.28131038559997L375.4116410105594,291.77561449089995L377.65560104082505,294.500162052075L379.63642569295314,297.42206114686246L381.39797086330003,300.50841985299996L383.13576075640316,304.11922198634056L384.687163090025,307.90544770512497L387.3623727678,315.8287463136L383.03936915087286,316.5653883227418L378.60946678657035,317.0293014764094L374.1192625647733,317.23282024545347L369.61535337536253,317.18827910072497L365.1443361082189,316.9080125130746L360.7528076532235,316.40435495335305L356.4873649002569,315.68964089241126L352.3946047392002,314.7762048010999L346.4106732558126,312.96443663485013L340.6604114702029,310.74169075235324L335.158209598363,308.1245844268378L329.9184578562846,305.1297349315327L324.95554645995975,301.77375953966646L320.2838656253803,298.0732755244677L315.91780556853814,294.04490015916514L311.8717565054252,289.7052507169874L308.1601086520334,285.0709444711632L304.7972522243545,280.1585986949212L301.7975774383806,274.98483066149L299.17547451010336,269.5662576440983L296.9453336555148,263.9194969159748L295.1215450906069,258.06116575034815L293.7184990313714,252.00788142044698L292.7505856938002,245.7762611994999L292.35879850121466,241.50442636399015L292.1887105737568,237.266875361521L292.23520396258425,233.06979684152955L292.4931607188547,228.91937945345285L292.9574628937256,224.82181184672805L293.62299253835465,220.78328267079223L294.48463170389937,216.80998057508248L295.5372624415174,212.90809420903585L296.7757668023663,209.0838122220895L298.1950268376038,205.34332326368047L301.5553421358746,198.13847903022275L305.57726474559064,191.34307070415952L310.21985107601273,185.00660748098744L315.44215753640157,179.1785985562032L321.203240536018,173.90855312530363L324.2730283659305,171.49823834365327L327.4621564841228,169.24598038378537L330.7655069417523,167.157967895137L334.17796178997673,165.24038952714523L337.69440307995364,163.49943392924712L341.3097128628407,161.94128975087983L345.0187731897954,160.57214564148046L348.81646611197533,159.39819025048604L352.6976736805382,158.4256122273337L356.6572779466416,157.66060022146047L360.69016096144304,157.1093428823035L364.7912047761002,156.77802885929992L369.37414594540957,156.61722390596555ZM466.69037996138593,219.4517594113328L472.1504390578,219.93051961319998L476.251365095387,220.49373667799608L480.12992803347873,221.20188377528612L483.78030326084007,222.02994933917878L487.19666616623596,222.95292180378283L490.37319213843125,223.94578960320698L493.3040565661908,224.98354117155998L495.9834348382796,226.0411649429506L498.4055023434625,227.0936493514875L500.56443447050435,228.11598283127952L502.4544066081701,229.08315381643536L504.06959414522464,229.97015074106378L505.40417247043285,230.75196203927345L506.4523169725596,231.40357614517316L507.20820304036977,231.8999814928717L507.6660060626283,232.2161665164777L507.8199014281,232.3271196501L507.5905145327015,232.35684229860712L506.9331900236319,232.4552610972664L505.8941821665803,232.63625232578468L504.51974522723594,232.91369226386877L502.8561334712879,233.3014571912255L500.9496011644252,233.81342338756173L498.846402572337,234.46346713258424L496.5927919607125,235.265464706L491.8193517416107,237.3808264568383L489.3920306655118,238.72194319367452L486.99931463263283,240.27051887773123L484.6874579086631,242.0404297887153L482.5027147592916,244.04555220633358L480.49133945020753,246.29976241029283L478.6995862471,248.8169366803L475.2306305284899,254.13789035547282L471.60406768235,259.32590584481403L467.8596421147539,264.26997291067005L464.03709823177496,268.85908131538747L460.17618043948664,272.9822208213127L456.31663314396246,276.5283811907922L452.4982007512757,279.3865521861725L450.61682277039444,280.5229509693087L448.7606276675,281.4457235698L446.4874303730172,282.2168564140719L443.90724180401253,282.79063772475L441.06391785685156,283.1889954500031L438.0013144279,283.433857538L433.9343652891822,283.48479433428867L429.8057437962141,283.3150811520344L425.7511291283483,282.9672033908317L421.90620046493757,282.48364645027505L418.40663698533467,281.90689572995905L415.3881178688922,281.27943662947814L412.9863222949631,280.64375454842695L412.05909557998876,280.33610657756077L411.3369294429,280.0423348864L411.25001710663037,280.18874962371666L411.0034418976867,280.62159818411465L410.6184465158668,281.33128709026585L410.1162736609687,282.3082228648422L409.51816603279013,283.5428120305156L408.84536633112884,285.02546110995803L408.11911725578284,286.7465766258414L407.36066150654995,288.6965651008375L406.59124178322793,290.8658330576184L405.8321007856148,293.244787018856L405.1044812135083,295.8238335072223L404.4296257667062,298.59337904538904L403.8287771450065,301.5438301560282L403.323178048207,304.6655933618119L402.93407117610553,307.9490751854118L402.6826992285,311.3846821495L397.18609355169997,313.3728161176L397.3293390152636,312.42286199801174L397.54265112574024,311.1290845034689L397.83031268550843,309.52317637157324L398.19660649694686,307.6368303399265L398.64581536243406,305.5017391461304L399.1822220843488,303.14959552778646L400.53376030697495,297.92092196786245L402.2854835838543,292.2043515609681L404.4716543340156,286.2534262079172L407.12653497648785,280.3216878095232L410.28438793029994,274.6626782666L414.1076170616634,268.83418395755405L418.021298979264,263.42643215417655L422.13781441751695,258.3996784503951L426.56954411083746,253.7141784401375L431.4288687936408,249.33018771733143L436.82816920034213,245.2079618759047L442.8798260653568,241.30775650978495L446.18540714923637,239.42849137806763L449.6962201230999,237.5898272129L449.17663053852976,237.7197103330344L448.01736159069037,238.03683757316134L446.29139223211314,238.56399344193494L444.0717014153296,239.3239624480094L441.4312680928713,240.33952910003893L438.4430712172697,241.63347790667774L435.18008974105624,243.22859337658005L431.7153026167624,245.14766001840002L428.1216887969198,247.41346234079185L424.4722272340599,250.04878485240977L420.83989688071415,253.07641206190794L417.297676689414,256.5191284779406L413.918545612691,260.39971860916194L410.7754826030767,264.7409669642262L407.9414666131025,269.5656580517874L405.48947659529995,274.8965763805L405.4508742698603,274.6458896812727L405.35608157721265,273.92169635106757L405.2366199428637,272.76579654109975L405.12401079232023,271.21999040258436L405.04977555108906,269.3260780867365L405.04543564467707,267.12585974477145L405.14251249859086,264.6611355279042L405.3725275383374,261.97370558734997L405.76700218942335,259.10537007432384L406.3574578773556,256.097929140041L407.17541602764084,252.99318293571656L408.2523980657859,249.83293161256563L409.6199254172975,246.65897532180338L411.3095195076825,243.51311421464493L413.35270176244774,240.4371484423054L415.78099360709996,237.47287815599998L419.45232601410424,233.79766267484374L423.35527237374055,230.56922913782498L427.48023920868155,227.77387257733122L431.81763304159995,225.39788802574998L436.35786039516836,223.42757051546874L441.09132779205936,221.84921507887498L446.0084417549457,220.64911674835622L451.0996088065,219.81357055629996L456.1649648357078,219.3713569346859L461.36188855401247,219.25806253576246ZM388.9320483915593,157.3974933953344L390.89285808056445,157.4732989974368L393.1762484447262,157.64623855748556L395.7409332691146,157.9456064437502L398.5456263388,158.40069702450003L401.54904143885256,159.04080466800457L404.70989235434257,159.89522374253323L407.98689287034017,160.99324861635546L411.3387567719156,162.36417365774065L414.7241978441391,164.03729323495827L418.10192987208086,166.04190171627772L421.43066664081107,168.40729346996852L424.66912193539997,171.16276286430002L427.6077239594543,174.13371432232373L430.0818988935721,177.11939862052853L432.1178574883104,180.10987965739645L433.74181049422657,183.0952213314094L434.9799686618777,186.0654875410493L435.8585427418209,189.01074218479806L436.40374348461347,191.92104916113766L436.6417816408125,194.78647236855002L436.5988679609752,197.59707570551706L436.30121319565876,200.34292307052073L435.77502809542034,203.01407836204294L435.04652341081714,205.60060547856565L433.0873982907451,210.48003078054023L430.63352383989996,214.90171016430003L430.6213321291284,214.6146767488863L430.5743640630419,213.79503402966992L430.47703024098246,212.50496829718813L430.3137412622922,210.80666584197814L430.0689077263129,208.7623129545771L429.7269402323869,206.43409592552229L429.272249379856,203.88420104535084L428.6892457680625,201.17481460460002L427.07594266405533,195.526312203509L426.01446437052573,192.71156882424322L424.7623157151016,189.98607904654688L423.30390729712485,187.41202916095716L421.6236497159377,185.05160545801135L419.705953570882,182.96699422824656L417.5352294613,181.22038176220002L417.68983862716806,181.41853275225003L418.1197463299336,181.9997375870422L418.7740728773386,182.9441240635399L419.601938577125,184.23181997870626L420.5524637370348,185.8429531295047L421.57476866481016,187.75765131289845L422.6179736681929,189.9560423258508L423.631199054925,192.41825396532502L424.5635651327485,195.12441402828438L425.3641922094055,198.0546503116922L425.9822005926378,201.18909061251173L426.3667105901875,204.50786272770628L426.46684250979655,207.9910944542391L426.231716659207,211.6189135890735L425.6104533461608,215.3714479291727L424.5521728784,219.22882527150003L423.1910411784479,222.65974970498422L421.59555453233924,225.5157507471643L419.8136803267145,227.82492358164387L417.893385948214,229.61536339202658L415.88263878347817,230.91516536191614L413.8294062191474,231.75242467491623L411.781655641862,232.15523651463047L409.78735443826247,232.15169606466253L407.89446999498904,231.76989850861608L406.1509696986822,231.03793903009475L404.60482093598233,229.98391281270221L403.3039910935297,228.63591504004222L402.29644755796477,227.0220408957183L401.6301577159279,225.1703855633342L401.3530889540595,223.10904422649355L401.513208659,220.86611206880002L401.5984078743194,221.1390693403967L401.86588315887343,221.86566103993596L402.33345097055644,222.9074669945416L403.0189277672625,224.12606703133753L403.94013000688574,225.38304097744748L405.11487414732034,226.53996865999534L406.56097664646035,227.45842990610493L408.2962539622,228.00000454290003L409.8652443375888,228.10119288711115L411.33144745589215,227.9762492657266L412.70171580091505,227.64024914311938L413.9829018564625,227.10826798366253L416.3054370343516,225.5166644116922L418.35387286,223.32204226480002L419.45826483336054,221.7229009606641L420.25977702250316,220.19913697838751L420.8063768140692,218.7932357175672L421.14603159470005,217.5476825778L421.32670875103713,216.50496295868282L421.3963756697219,215.7075622598125L421.4029997373957,215.19796588078594L421.3945483407,215.0186592212L421.27197453662393,215.02359871994378L420.9183007161977,215.0307652759252L419.60193857710624,215.00586791810156L417.6140330250492,214.8521438647303L415.12315516165,214.47776983281253L412.2978760885321,213.79092253934942L409.3067669073188,212.6997787013422L406.3183987196336,211.11251503579203L403.5013426271,208.93730825970002L401.8640272777583,207.1743354885768L400.48967599446325,205.23833750135665L399.3561895169413,203.1591226025949L398.44146858491877,200.96649909684692L397.1799263162774,196.3602594826137L396.52825510635,191.65808509510003L396.30966087294763,187.09844237074884L396.34734953388124,182.91979774600316L396.4645270069617,179.36061765730588L396.4976758973729,177.88784757536385L396.48439921,176.6593685411L396.28956025379193,174.41540851083437L395.84666138381715,172.08373668785623L395.1049942199119,169.68628102034376L394.0138503819125,167.244969456475L392.5225214896553,164.7817299444281L390.5802991629766,162.31849043238122L388.1364750217127,159.8771788685125L385.1403406857,157.479723201L385.39796552478106,157.4599366540112L386.1433158987378,157.42010659189103L387.3351055926405,157.38952738290897ZM474.6652149584414,179.6011112868242L478.0616200047492,180.04655128621346L481.5536172001464,180.77602673935263L485.1317843794,181.8051270469L484.88281080112324,181.89169675898066L484.19253726575465,182.16876552086404L483.1459345724869,182.66237277101226L481.8279735205125,183.39855794788747L480.32362490902403,184.40336048995172L478.71785953721405,185.70281983566719L477.0956482042752,187.3229754234959L475.5419617094,189.2898666919L474.1801447610567,191.39540654928885L473.0458302750719,193.35019176294844L471.27332113065,196.9500299222375L469.85165915707813,200.3744444960828L468.40806923530005,203.90849881079998L467.3742578451313,205.99713587478922L466.1239079667001,207.94324127562652L464.67072456761883,209.71392309104118L463.0284126155001,211.27628939876246L461.21067707795635,212.59744827651969L459.23122292260007,213.64450780204217L457.1037551170438,214.38457605305916L454.84197862890005,214.78476110729997L452.6101246533725,214.8621941742896L450.5824746952485,214.70253130161092L448.78780918651586,214.37566782407987L447.2549085591626,213.95149907651245L446.01255324517643,213.49992039372478L445.08952367654535,213.09082711053279L444.51460028525725,212.7941145617525L444.3165635033001,212.67967808219998L444.3623609367516,212.50208454356758L444.50203739833773,211.99351603711736L444.73901912996166,211.1902907270198L445.0767323735266,210.1287267774453L445.5186033709359,208.84514235256438L446.06805836409285,207.37585561654745L447.50342530526257,204.02544786778748L449.41024313226194,200.36804884452908L451.81592178031724,196.69420386013593L454.74787118465457,193.2944582279717L456.4197630251872,191.78816807940154L458.2335012805001,190.4593572614L458.0896276725953,190.519544910827L457.6800490051228,190.705133013899L457.0378285124451,191.02365930280234L456.1960294289251,191.4826615097234L455.1877149889254,192.08967736684858L454.04594842680865,192.85224460636425L451.4943118736751,194.87418416131248L448.80562564442585,197.60878203205917L447.49254698716464,199.26217216632287L446.2443956139626,201.1163400760953L445.09423475918237,203.17882349356285L444.07512765718684,205.45716015091188L443.22013754233853,207.9588877803288L442.5623276490001,210.69154411399998L442.5111624365834,210.58561613516906L442.37228543145227,210.27719725987754L441.91910783576105,209.1090771871203L441.37821844735504,207.29956463014358L440.92504085166263,204.9610403233625L440.73499863411246,202.20588500119237L440.9835153801329,199.14647939804843L441.8460146751527,195.89520424834586L442.5623276489836,194.23273457303986L443.4979201046001,192.56444028649997L444.7942101765412,190.73605484704146L446.3085805456008,188.98904265277557L448.031609046546,187.33899310436055L449.95387351414377,185.80149560245465L452.06595178316104,184.39213954771614L454.35842168836484,183.12651434080328L456.8218610645221,182.0202093823743L459.44684774639995,181.08881407308746L462.2239595687653,180.34791781360101L465.1437743663851,179.81311000457322L468.1968699740264,179.4999800466623L471.37382422645624,179.42411734052655Z"></path></svg>