<svg class="svg-canvas" viewBox="0 0 800 600" width="1600" height="1200" preserveAspectRatio="none" version="1.1" xmlns="http://www.w3.org/2000/svg" xmlns:xlink="http://www.w3.org/1999/xlink">
      <!--滤镜-->
      <defs></defs>
    
      <!-- 背景 -->
      <g id="background">
          <rect x="0" y="0" fill="#ffffff" width="800" height="600"></rect>
          
        </g>
    
      <!--元素-->
      
              <g id="shape_gacWidqxIi" ref="shape_gacWidqxIi" key="shape_gacWidqxIi" mask="">
                <g transform="translate(97.28886662601867,355.64843380200074) rotate(0,302.7111333739813,75.2291189854921) scale(1,1)" style="opacity: 1;mix-blend-mode: undefined;" filter="">
                  <!--普通元素-->
                  <svg xmlns="http://www.w3.org/2000/svg" version="1.1" xmlns:xlink="http://www.w3.org/1999/xlink" width="605.4222667479626" height="150.45823797098416" viewBox="0 0 701.28079231639 174.28079231639" data-ligature="true" data-parent="shape_gacWidqxIi"><g data-role="text" data-width="555.0500417267041" data-height="29" transform="translate(73.11537529484296, 72.640396158195)"><path d="M14.80 0L2.22 0L2.22-17.92L4.95-17.92L4.95-2.22L14.80-2.22L14.80 0Z" transform="translate(0 24) " fill="#242424" stroke="#242424" stroke-width="0.04" data-glyph-w="15.022305000000001" data-glyph-h="30.262500000000003" data-glyph-ascender="24.936300000000003" data-glyph-descender="-5.326200000000001" data-kerning="0"></path><path d="M13.48-6.49L13.48-5.79L3.93-5.79Q4.01-4.36 4.55-3.48Q5.10-2.60 6.19-2.19Q7.28-1.78 8.98-1.78L8.98-1.78Q10.68-1.78 12.73-2.30L12.73-2.30L12.73-0.30Q10.59 0.24 8.61 0.24L8.61 0.24Q4.93 0.24 3.09-1.42Q1.26-3.09 1.26-6.56L1.26-6.56Q1.26-8.74 2.00-10.27Q2.74-11.79 4.13-12.58Q5.53-13.38 7.51-13.38L7.51-13.38Q10.41-13.38 11.95-11.60Q13.48-9.83 13.48-6.49L13.48-6.49ZM7.47-11.60Q5.77-11.60 4.88-10.57Q3.98-9.55 3.92-7.41L3.92-7.41L10.96-7.41Q10.91-9.55 10.04-10.57Q9.16-11.60 7.47-11.60L7.47-11.60Z" transform="translate(14.525928959585668 24) " fill="#242424" stroke="#242424" stroke-width="0.04" data-glyph-w="14.526000000000002" data-glyph-h="30.262500000000003" data-glyph-ascender="24.936300000000003" data-glyph-descender="-5.326200000000001" data-kerning="-0.49637604041433253"></path><path d="M8.58-1.96Q8.97-1.96 9.37-2.01Q9.77-2.06 10.36-2.18L10.36-2.18L10.36-0.05Q9.13 0.24 7.90 0.24L7.90 0.24Q5.47 0.24 4.20-0.94Q2.93-2.13 2.93-4.53L2.93-4.53L2.93-11.00L0.30-11.00L0.30-13.17L2.93-13.17L3.39-17.92L5.62-17.92L5.62-13.17L10.18-13.17L10.18-11.00L5.62-11.00L5.62-5.02Q5.62-3.39 6.34-2.68Q7.07-1.96 8.58-1.96L8.58-1.96Z" transform="translate(28.918754899962313 24) " fill="#242424" stroke="#242424" stroke-width="0.04" data-glyph-w="10.712925" data-glyph-h="30.262500000000003" data-glyph-ascender="24.936300000000003" data-glyph-descender="-5.326200000000001" data-kerning="-0.1331740596233575"></path><path d="M0,0Z" transform="translate(39.631679899962315 24) " fill="#242424" stroke="#242424" stroke-width="0.04" data-glyph-w="6.8030100000000004" data-glyph-h="30.262500000000003" data-glyph-ascender="24.936300000000003" data-glyph-descender="-5.326200000000001" data-kerning="0"></path><path d="M9.88 0.23Q5.88 0.23 4.00-1.66Q2.12-3.56 2.12-7.46L2.12-7.46L2.12-17.92L4.87-17.92L4.87-7.20Q4.87-4.50 6.09-3.27Q7.31-2.03 9.88-2.03L9.88-2.03Q12.44-2.03 13.67-3.27Q14.89-4.50 14.89-7.20L14.89-7.20L14.89-17.92L17.58-17.92L17.58-7.46Q17.58-3.56 15.71-1.66Q13.84 0.23 9.88 0.23L9.88 0.23Z" transform="translate(46.434689899962315 24) " fill="#242424" stroke="#242424" stroke-width="0.04" data-glyph-w="19.706940000000003" data-glyph-h="30.262500000000003" data-glyph-ascender="24.936300000000003" data-glyph-descender="-5.326200000000001" data-kerning="0"></path><path d="M6.02 0.24Q3.53 0.24 1.51-0.34L1.51-0.34L1.51-2.29Q3.68-1.68 6.03-1.68L6.03-1.68Q7.84-1.68 8.64-2.17Q9.44-2.66 9.44-3.61L9.44-3.61Q9.44-4.12 9.26-4.45Q9.08-4.78 8.64-5.01Q8.21-5.23 7.44-5.35L7.44-5.35L5.11-5.71Q3.07-6.04 2.17-6.95Q1.27-7.86 1.27-9.38L1.27-9.38Q1.27-11.23 2.80-12.30Q4.33-13.38 7.48-13.38L7.48-13.38Q8.47-13.38 9.46-13.25Q10.45-13.12 11.28-12.88L11.28-12.88L11.28-10.94Q9.44-11.45 7.49-11.45L7.49-11.45Q5.50-11.45 4.67-10.93Q3.85-10.41 3.85-9.49L3.85-9.49Q3.85-8.80 4.27-8.37Q4.70-7.94 5.79-7.75L5.79-7.75L8.12-7.38Q10.14-7.07 11.09-6.22Q12.03-5.37 12.03-3.76L12.03-3.76Q12.03-2.52 11.36-1.62Q10.69-0.73 9.34-0.24Q7.99 0.24 6.02 0.24L6.02 0.24Z" transform="translate(66.14162989996231 24) " fill="#242424" stroke="#242424" stroke-width="0.04" data-glyph-w="13.000770000000001" data-glyph-h="30.262500000000003" data-glyph-ascender="24.936300000000003" data-glyph-descender="-5.326200000000001" data-kerning="0"></path><path d="M0,0Z" transform="translate(79.14239989996231 24) " fill="#242424" stroke="#242424" stroke-width="0.04" data-glyph-w="6.8030100000000004" data-glyph-h="30.262500000000003" data-glyph-ascender="24.936300000000003" data-glyph-descender="-5.326200000000001" data-kerning="0"></path><path d="M15.16-17.92L15.16-15.74L4.95-15.74L4.95-10.05L13.88-10.05L13.88-7.86L4.95-7.86L4.95 0L2.22 0L2.22-17.92L15.16-17.92Z" transform="translate(85.94540989996231 24) " fill="#242424" stroke="#242424" stroke-width="0.04" data-glyph-w="16.09965" data-glyph-h="30.262500000000003" data-glyph-ascender="24.936300000000003" data-glyph-descender="-5.326200000000001" data-kerning="0"></path><path d="M4.68 0L2.00 0L2.00-13.17L4.68-13.17L4.68 0ZM3.34-15.74Q2.48-15.74 2.04-16.11Q1.60-16.49 1.60-17.19L1.60-17.19Q1.60-17.90 2.04-18.28Q2.48-18.67 3.34-18.67L3.34-18.67Q4.20-18.67 4.64-18.28Q5.08-17.90 5.08-17.19L5.08-17.19Q5.08-16.49 4.64-16.11Q4.20-15.74 3.34-15.74L3.34-15.74Z" transform="translate(102.04505989996231 24) " fill="#242424" stroke="#242424" stroke-width="0.04" data-glyph-w="6.681960000000001" data-glyph-h="30.262500000000003" data-glyph-ascender="24.936300000000003" data-glyph-descender="-5.326200000000001" data-kerning="0"></path><path d="M2.00 0L2.00-13.17L4.22-13.17L4.39-11.73L4.55-11.73Q5.48-12.52 6.69-12.95Q7.90-13.38 9.22-13.38L9.22-13.38Q11.58-13.38 12.92-12.08Q14.26-10.79 14.26-8.04L14.26-8.04L14.26 0L11.57 0L11.57-7.93Q11.57-9.61 10.81-10.34Q10.05-11.08 8.57-11.08L8.57-11.08Q7.52-11.08 6.48-10.68Q5.45-10.29 4.68-9.49L4.68-9.49L4.68 0L2.00 0Z" transform="translate(108.72701989996231 24) " fill="#242424" stroke="#242424" stroke-width="0.04" data-glyph-w="16.087545000000002" data-glyph-h="30.262500000000003" data-glyph-ascender="24.936300000000003" data-glyph-descender="-5.326200000000001" data-kerning="0"></path><path d="M7.28 0.22Q5.51 0.22 4.16-0.48Q2.81-1.17 2.03-2.63Q1.26-4.09 1.26-6.31L1.26-6.31Q1.26-9.77 3.18-11.58Q5.10-13.39 8.70-13.39L8.70-13.39Q9.96-13.39 11.42-13.16L11.42-13.16L11.42-19.56L14.10-19.56L14.10 0L11.84 0L11.68-1.48L11.54-1.48Q10.75-0.68 9.66-0.23Q8.57 0.22 7.28 0.22L7.28 0.22ZM7.92-1.99Q8.93-1.99 9.84-2.35Q10.75-2.72 11.42-3.52L11.42-3.52L11.42-11.00Q10.22-11.29 8.84-11.29L8.84-11.29Q6.36-11.29 5.15-10.12Q3.95-8.95 3.95-6.51L3.95-6.51Q3.95-1.99 7.92-1.99L7.92-1.99Z" transform="translate(124.81456489996232 24) " fill="#242424" stroke="#242424" stroke-width="0.04" data-glyph-w="16.09965" data-glyph-h="30.262500000000003" data-glyph-ascender="24.936300000000003" data-glyph-descender="-5.326200000000001" data-kerning="0"></path><path d="M0,0Z" transform="translate(140.91421489996233 24) " fill="#242424" stroke="#242424" stroke-width="0.04" data-glyph-w="6.8030100000000004" data-glyph-h="30.262500000000003" data-glyph-ascender="24.936300000000003" data-glyph-descender="-5.326200000000001" data-kerning="0"></path><path d="M9.58 0L6.84 0L6.84-15.70L0.25-15.70L0.25-17.92L16.16-17.92L16.16-15.70L9.58-15.70L9.58 0Z" transform="translate(147.71722489996233 24) " fill="#242424" stroke="#242424" stroke-width="0.04" data-glyph-w="16.41438" data-glyph-h="30.262500000000003" data-glyph-ascender="24.936300000000003" data-glyph-descender="-5.326200000000001" data-kerning="0"></path><path d="M2.00 0L2.00-19.56L4.68-19.56L4.68-11.77L4.82-11.77Q5.73-12.55 6.89-12.96Q8.06-13.38 9.35-13.38L9.35-13.38Q11.62-13.38 12.94-12.09Q14.26-10.80 14.26-8.10L14.26-8.10L14.26 0L11.57 0L11.57-7.97Q11.57-9.64 10.80-10.35Q10.04-11.06 8.57-11.06L8.57-11.06Q7.48-11.06 6.46-10.66Q5.44-10.25 4.68-9.47L4.68-9.47L4.68 0L2.00 0Z" transform="translate(163.91368371148775 24) " fill="#242424" stroke="#242424" stroke-width="0.04" data-glyph-w="16.087545000000002" data-glyph-h="30.262500000000003" data-glyph-ascender="24.936300000000003" data-glyph-descender="-5.326200000000001" data-kerning="-0.21792118847458497"></path><path d="M13.48-6.49L13.48-5.79L3.93-5.79Q4.01-4.36 4.55-3.48Q5.10-2.60 6.19-2.19Q7.28-1.78 8.98-1.78L8.98-1.78Q10.68-1.78 12.73-2.30L12.73-2.30L12.73-0.30Q10.59 0.24 8.61 0.24L8.61 0.24Q4.93 0.24 3.09-1.42Q1.26-3.09 1.26-6.56L1.26-6.56Q1.26-8.74 2.00-10.27Q2.74-11.79 4.13-12.58Q5.53-13.38 7.51-13.38L7.51-13.38Q10.41-13.38 11.95-11.60Q13.48-9.83 13.48-6.49L13.48-6.49ZM7.47-11.60Q5.77-11.60 4.88-10.57Q3.98-9.55 3.92-7.41L3.92-7.41L10.96-7.41Q10.91-9.55 10.04-10.57Q9.16-11.60 7.47-11.60L7.47-11.60Z" transform="translate(180.00122871148776 24) " fill="#242424" stroke="#242424" stroke-width="0.04" data-glyph-w="14.526000000000002" data-glyph-h="30.262500000000003" data-glyph-ascender="24.936300000000003" data-glyph-descender="-5.326200000000001" data-kerning="0"></path><path d="M0,0Z" transform="translate(194.52722871148777 24) " fill="#242424" stroke="#242424" stroke-width="0.04" data-glyph-w="6.8030100000000004" data-glyph-h="30.262500000000003" data-glyph-ascender="24.936300000000003" data-glyph-descender="-5.326200000000001" data-kerning="0"></path><path d="M2.22 0L2.22-17.58Q3.61-17.84 4.92-17.98Q6.23-18.11 7.70-18.11L7.70-18.11Q11.73-18.11 13.75-16.60Q15.76-15.09 15.76-11.91L15.76-11.91Q15.76-5.65 7.55-5.65L7.55-5.65Q6.49-5.65 4.95-5.77L4.95-5.77L4.95 0L2.22 0ZM7.57-7.69Q9.53-7.69 10.74-8.14Q11.95-8.59 12.51-9.52Q13.07-10.45 13.07-11.90L13.07-11.90Q13.07-14.08 11.80-15.08Q10.53-16.09 7.92-16.09L7.92-16.09Q6.33-16.09 4.95-15.85L4.95-15.85L4.95-7.86Q6.15-7.69 7.57-7.69L7.57-7.69Z" transform="translate(201.33023871148777 24) " fill="#242424" stroke="#242424" stroke-width="0.04" data-glyph-w="16.910685" data-glyph-h="30.262500000000003" data-glyph-ascender="24.936300000000003" data-glyph-descender="-5.326200000000001" data-kerning="0"></path><path d="M13.48-6.49L13.48-5.79L3.93-5.79Q4.01-4.36 4.55-3.48Q5.10-2.60 6.19-2.19Q7.28-1.78 8.98-1.78L8.98-1.78Q10.68-1.78 12.73-2.30L12.73-2.30L12.73-0.30Q10.59 0.24 8.61 0.24L8.61 0.24Q4.93 0.24 3.09-1.42Q1.26-3.09 1.26-6.56L1.26-6.56Q1.26-8.74 2.00-10.27Q2.74-11.79 4.13-12.58Q5.53-13.38 7.51-13.38L7.51-13.38Q10.41-13.38 11.95-11.60Q13.48-9.83 13.48-6.49L13.48-6.49ZM7.47-11.60Q5.77-11.60 4.88-10.57Q3.98-9.55 3.92-7.41L3.92-7.41L10.96-7.41Q10.91-9.55 10.04-10.57Q9.16-11.60 7.47-11.60L7.47-11.60Z" transform="translate(217.9987890576271 24) " fill="#242424" stroke="#242424" stroke-width="0.04" data-glyph-w="14.526000000000002" data-glyph-h="30.262500000000003" data-glyph-ascender="24.936300000000003" data-glyph-descender="-5.326200000000001" data-kerning="-0.24213465386065"></path><path d="M2.00 0L2.00-13.17L4.21-13.17L4.42-11.49L4.58-11.49Q5.29-12.35 6.42-12.83Q7.55-13.32 8.79-13.32L8.79-13.32Q9.49-13.32 10.11-13.19L10.11-13.19L10.11-10.79Q9.51-10.89 8.66-10.89L8.66-10.89Q7.59-10.89 6.49-10.48Q5.39-10.07 4.68-9.26L4.68-9.26L4.68 0L2.00 0Z" transform="translate(232.52478905762712 24) " fill="#242424" stroke="#242424" stroke-width="0.04" data-glyph-w="10.277145" data-glyph-h="30.262500000000003" data-glyph-ascender="24.936300000000003" data-glyph-descender="-5.326200000000001" data-kerning="0"></path><path d="M9.14-17.65Q7.36-17.65 6.54-16.89Q5.71-16.14 5.71-14.43L5.71-14.43L5.71-13.17L10.28-13.17L10.28-11.00L5.71-11.00L5.71 0L3.03 0L3.03-11.00L0.40-11.00L0.40-13.17L3.03-13.17L3.03-14.31Q3.03-16.97 4.51-18.39Q5.99-19.80 8.79-19.80L8.79-19.80Q9.74-19.80 10.87-19.65L10.87-19.65L10.87-17.50Q9.99-17.65 9.14-17.65L9.14-17.65Z" transform="translate(243.22566970188325 24) " fill="#242424" stroke="#242424" stroke-width="0.04" data-glyph-w="10.325565000000001" data-glyph-h="30.262500000000003" data-glyph-ascender="24.936300000000003" data-glyph-descender="-5.326200000000001" data-kerning="0.4237356442561375"></path><path d="M13.48-6.49L13.48-5.79L3.93-5.79Q4.01-4.36 4.55-3.48Q5.10-2.60 6.19-2.19Q7.28-1.78 8.98-1.78L8.98-1.78Q10.68-1.78 12.73-2.30L12.73-2.30L12.73-0.30Q10.59 0.24 8.61 0.24L8.61 0.24Q4.93 0.24 3.09-1.42Q1.26-3.09 1.26-6.56L1.26-6.56Q1.26-8.74 2.00-10.27Q2.74-11.79 4.13-12.58Q5.53-13.38 7.51-13.38L7.51-13.38Q10.41-13.38 11.95-11.60Q13.48-9.83 13.48-6.49L13.48-6.49ZM7.47-11.60Q5.77-11.60 4.88-10.57Q3.98-9.55 3.92-7.41L3.92-7.41L10.96-7.41Q10.91-9.55 10.04-10.57Q9.16-11.60 7.47-11.60L7.47-11.60Z" transform="translate(253.33331351340865 24) " fill="#242424" stroke="#242424" stroke-width="0.04" data-glyph-w="14.526000000000002" data-glyph-h="30.262500000000003" data-glyph-ascender="24.936300000000003" data-glyph-descender="-5.326200000000001" data-kerning="-0.21792118847458497"></path><path d="M8.23 0.24Q4.83 0.24 3.04-1.48Q1.26-3.20 1.26-6.56L1.26-6.56Q1.26-9.94 3.14-11.66Q5.02-13.38 8.64-13.38L8.64-13.38Q10.45-13.38 11.96-12.96L11.96-12.96L11.96-10.82Q11.12-11.02 10.40-11.11Q9.67-11.21 8.87-11.21L8.87-11.21Q6.39-11.21 5.20-10.10Q4.01-8.98 4.01-6.60L4.01-6.60Q4.01-4.20 5.14-3.06Q6.27-1.92 8.50-1.92L8.50-1.92Q9.27-1.92 10.08-2.06Q10.89-2.20 11.96-2.51L11.96-2.51L11.96-0.36Q10.24 0.24 8.23 0.24L8.23 0.24Z" transform="translate(267.85931351340867 24) " fill="#242424" stroke="#242424" stroke-width="0.04" data-glyph-w="12.649725000000002" data-glyph-h="30.262500000000003" data-glyph-ascender="24.936300000000003" data-glyph-descender="-5.326200000000001" data-kerning="0"></path><path d="M8.58-1.96Q8.97-1.96 9.37-2.01Q9.77-2.06 10.36-2.18L10.36-2.18L10.36-0.05Q9.13 0.24 7.90 0.24L7.90 0.24Q5.47 0.24 4.20-0.94Q2.93-2.13 2.93-4.53L2.93-4.53L2.93-11.00L0.30-11.00L0.30-13.17L2.93-13.17L3.39-17.92L5.62-17.92L5.62-13.17L10.18-13.17L10.18-11.00L5.62-11.00L5.62-5.02Q5.62-3.39 6.34-2.68Q7.07-1.96 8.58-1.96L8.58-1.96Z" transform="translate(280.7874933653484 24) " fill="#242424" stroke="#242424" stroke-width="0.04" data-glyph-w="10.712925" data-glyph-h="30.262500000000003" data-glyph-ascender="24.936300000000003" data-glyph-descender="-5.326200000000001" data-kerning="0.2784548519397475"></path><path d="M0,0Z" transform="translate(291.5004183653484 24) " fill="#242424" stroke="#242424" stroke-width="0.04" data-glyph-w="6.8030100000000004" data-glyph-h="30.262500000000003" data-glyph-ascender="24.936300000000003" data-glyph-descender="-5.326200000000001" data-kerning="0"></path><path d="M2.22 0L2.22-17.58Q3.61-17.84 4.92-17.98Q6.23-18.11 7.70-18.11L7.70-18.11Q11.73-18.11 13.75-16.60Q15.76-15.09 15.76-11.91L15.76-11.91Q15.76-5.65 7.55-5.65L7.55-5.65Q6.49-5.65 4.95-5.77L4.95-5.77L4.95 0L2.22 0ZM7.57-7.69Q9.53-7.69 10.74-8.14Q11.95-8.59 12.51-9.52Q13.07-10.45 13.07-11.90L13.07-11.90Q13.07-14.08 11.80-15.08Q10.53-16.09 7.92-16.09L7.92-16.09Q6.33-16.09 4.95-15.85L4.95-15.85L4.95-7.86Q6.15-7.69 7.57-7.69L7.57-7.69Z" transform="translate(298.3034283653484 24) " fill="#242424" stroke="#242424" stroke-width="0.04" data-glyph-w="16.910685" data-glyph-h="30.262500000000003" data-glyph-ascender="24.936300000000003" data-glyph-descender="-5.326200000000001" data-kerning="0"></path><path d="M4.68 0L2.00 0L2.00-19.56L4.68-19.56L4.68 0Z" transform="translate(315.2141133653484 24) " fill="#242424" stroke="#242424" stroke-width="0.04" data-glyph-w="6.681960000000001" data-glyph-h="30.262500000000003" data-glyph-ascender="24.936300000000003" data-glyph-descender="-5.326200000000001" data-kerning="0"></path><path d="M6.68-13.38Q8.76-13.38 10.07-12.89Q11.38-12.40 12.03-11.26Q12.69-10.12 12.69-8.16L12.69-8.16L12.69 0L10.43 0L10.24-1.42L10.10-1.42Q9.36-0.64 8.23-0.21Q7.11 0.22 5.83 0.22L5.83 0.22Q4.38 0.22 3.35-0.24Q2.32-0.69 1.79-1.51Q1.26-2.34 1.26-3.45L1.26-3.45Q1.26-5.21 2.57-6.17Q3.89-7.13 6.75-7.38L6.75-7.38L10.05-7.71L10.05-8.34Q10.05-9.50 9.65-10.16Q9.25-10.81 8.44-11.08Q7.64-11.34 6.31-11.34L6.31-11.34Q5.39-11.34 4.32-11.19Q3.24-11.03 2.26-10.71L2.26-10.71L2.26-12.72Q3.23-13.04 4.41-13.21Q5.59-13.38 6.68-13.38L6.68-13.38ZM6.55-1.65Q7.52-1.65 8.43-1.99Q9.33-2.34 10.05-3.03L10.05-3.03L10.05-6.11L6.96-5.81Q5.35-5.63 4.66-5.11Q3.97-4.60 3.97-3.66L3.97-3.66Q3.97-2.70 4.61-2.17Q5.25-1.65 6.55-1.65L6.55-1.65Z" transform="translate(321.8960733653484 24) " fill="#242424" stroke="#242424" stroke-width="0.04" data-glyph-w="14.513895000000002" data-glyph-h="30.262500000000003" data-glyph-ascender="24.936300000000003" data-glyph-descender="-5.326200000000001" data-kerning="0"></path><path d="M2.00 0L2.00-13.17L4.22-13.17L4.39-11.73L4.55-11.73Q5.48-12.52 6.69-12.95Q7.90-13.38 9.22-13.38L9.22-13.38Q11.58-13.38 12.92-12.08Q14.26-10.79 14.26-8.04L14.26-8.04L14.26 0L11.57 0L11.57-7.93Q11.57-9.61 10.81-10.34Q10.05-11.08 8.57-11.08L8.57-11.08Q7.52-11.08 6.48-10.68Q5.45-10.29 4.68-9.49L4.68-9.49L4.68 0L2.00 0Z" transform="translate(336.4099683653484 24) " fill="#242424" stroke="#242424" stroke-width="0.04" data-glyph-w="16.087545000000002" data-glyph-h="30.262500000000003" data-glyph-ascender="24.936300000000003" data-glyph-descender="-5.326200000000001" data-kerning="0"></path><path d="M8.58-1.96Q8.97-1.96 9.37-2.01Q9.77-2.06 10.36-2.18L10.36-2.18L10.36-0.05Q9.13 0.24 7.90 0.24L7.90 0.24Q5.47 0.24 4.20-0.94Q2.93-2.13 2.93-4.53L2.93-4.53L2.93-11.00L0.30-11.00L0.30-13.17L2.93-13.17L3.39-17.92L5.62-17.92L5.62-13.17L10.18-13.17L10.18-11.00L5.62-11.00L5.62-5.02Q5.62-3.39 6.34-2.68Q7.07-1.96 8.58-1.96L8.58-1.96Z" transform="translate(352.49751336534837 24) " fill="#242424" stroke="#242424" stroke-width="0.04" data-glyph-w="10.712925" data-glyph-h="30.262500000000003" data-glyph-ascender="24.936300000000003" data-glyph-descender="-5.326200000000001" data-kerning="0"></path><path d="M0,0Z" transform="translate(363.21043836534835 24) " fill="#242424" stroke="#242424" stroke-width="0.04" data-glyph-w="6.8030100000000004" data-glyph-h="30.262500000000003" data-glyph-ascender="24.936300000000003" data-glyph-descender="-5.326200000000001" data-kerning="0"></path><path d="M15.16-17.92L15.16-15.74L4.95-15.74L4.95-10.05L13.88-10.05L13.88-7.86L4.95-7.86L4.95 0L2.22 0L2.22-17.92L15.16-17.92Z" transform="translate(370.0134483653484 24) " fill="#242424" stroke="#242424" stroke-width="0.04" data-glyph-w="16.09965" data-glyph-h="30.262500000000003" data-glyph-ascender="24.936300000000003" data-glyph-descender="-5.326200000000001" data-kerning="0"></path><path d="M7.90 0.24Q5.88 0.24 4.39-0.52Q2.89-1.28 2.08-2.81Q1.26-4.33 1.26-6.59L1.26-6.59Q1.26-8.81 2.06-10.33Q2.87-11.85 4.36-12.61Q5.85-13.38 7.90-13.38L7.90-13.38Q11.05-13.38 12.79-11.66Q14.54-9.95 14.54-6.59L14.54-6.59Q14.54-4.37 13.71-2.84Q12.89-1.31 11.40-0.53Q9.90 0.24 7.90 0.24L7.90 0.24ZM7.90-1.89Q11.85-1.89 11.85-6.57L11.85-6.57Q11.85-9.01 10.83-10.13Q9.82-11.25 7.90-11.25L7.90-11.25Q5.99-11.25 4.97-10.13Q3.95-9.02 3.95-6.60L3.95-6.60Q3.95-1.89 7.90-1.89L7.90-1.89Z" transform="translate(385.05981262105456 24) " fill="#242424" stroke="#242424" stroke-width="0.04" data-glyph-w="15.797025000000001" data-glyph-h="30.262500000000003" data-glyph-ascender="24.936300000000003" data-glyph-descender="-5.326200000000001" data-kerning="-1.0532857442938275"></path><path d="M2.00 0L2.00-13.17L4.21-13.17L4.42-11.49L4.58-11.49Q5.29-12.35 6.42-12.83Q7.55-13.32 8.79-13.32L8.79-13.32Q9.49-13.32 10.11-13.19L10.11-13.19L10.11-10.79Q9.51-10.89 8.66-10.89L8.66-10.89Q7.59-10.89 6.49-10.48Q5.39-10.07 4.68-9.26L4.68-9.26L4.68 0L2.00 0Z" transform="translate(400.8568376210545 24) " fill="#242424" stroke="#242424" stroke-width="0.04" data-glyph-w="10.277145" data-glyph-h="30.262500000000003" data-glyph-ascender="24.936300000000003" data-glyph-descender="-5.326200000000001" data-kerning="0"></path><path d="M0,0Z" transform="translate(411.13398262105454 24) " fill="#242424" stroke="#242424" stroke-width="0.04" data-glyph-w="6.8030100000000004" data-glyph-h="30.262500000000003" data-glyph-ascender="24.936300000000003" data-glyph-descender="-5.326200000000001" data-kerning="0"></path><path d="M13.84-17.92L16.66-17.92L9.60-7.84L9.60 0L6.85 0L6.85-7.83L-0.40-17.92L2.61-17.92L8.28-10.05L13.84-17.92Z" transform="translate(417.9369926210545 24) " fill="#242424" stroke="#242424" stroke-width="0.04" data-glyph-w="16.41438" data-glyph-h="30.262500000000003" data-glyph-ascender="24.936300000000003" data-glyph-descender="-5.326200000000001" data-kerning="0"></path><path d="M7.90 0.24Q5.88 0.24 4.39-0.52Q2.89-1.28 2.08-2.81Q1.26-4.33 1.26-6.59L1.26-6.59Q1.26-8.81 2.06-10.33Q2.87-11.85 4.36-12.61Q5.85-13.38 7.90-13.38L7.90-13.38Q11.05-13.38 12.79-11.66Q14.54-9.95 14.54-6.59L14.54-6.59Q14.54-4.37 13.71-2.84Q12.89-1.31 11.40-0.53Q9.90 0.24 7.90 0.24L7.90 0.24ZM7.90-1.89Q11.85-1.89 11.85-6.57L11.85-6.57Q11.85-9.01 10.83-10.13Q9.82-11.25 7.90-11.25L7.90-11.25Q5.99-11.25 4.97-10.13Q3.95-9.02 3.95-6.60L3.95-6.60Q3.95-1.89 7.90-1.89L7.90-1.89Z" transform="translate(432.35376172670414 24) " fill="#242424" stroke="#242424" stroke-width="0.04" data-glyph-w="15.797025000000001" data-glyph-h="30.262500000000003" data-glyph-ascender="24.936300000000003" data-glyph-descender="-5.326200000000001" data-kerning="-1.9976108943503625"></path><path d="M6.89 0.22Q4.52 0.22 3.17-1.06Q1.83-2.34 1.83-5.05L1.83-5.05L1.83-13.17L4.52-13.17L4.52-5.19Q4.52-3.53 5.27-2.81Q6.03-2.08 7.43-2.08L7.43-2.08Q8.49-2.08 9.51-2.49Q10.53-2.89 11.28-3.68L11.28-3.68L11.28-13.17L13.97-13.17L13.97 0L11.74 0L11.57-1.40L11.44-1.40Q10.51-0.62 9.33-0.20Q8.16 0.22 6.89 0.22L6.89 0.22Z" transform="translate(448.15078672670415 24) " fill="#242424" stroke="#242424" stroke-width="0.04" data-glyph-w="15.966495000000002" data-glyph-h="30.262500000000003" data-glyph-ascender="24.936300000000003" data-glyph-descender="-5.326200000000001" data-kerning="0"></path><path d="M2.00 0L2.00-13.17L4.21-13.17L4.42-11.49L4.58-11.49Q5.29-12.35 6.42-12.83Q7.55-13.32 8.79-13.32L8.79-13.32Q9.49-13.32 10.11-13.19L10.11-13.19L10.11-10.79Q9.51-10.89 8.66-10.89L8.66-10.89Q7.59-10.89 6.49-10.48Q5.39-10.07 4.68-9.26L4.68-9.26L4.68 0L2.00 0Z" transform="translate(464.11728172670416 24) " fill="#242424" stroke="#242424" stroke-width="0.04" data-glyph-w="10.277145" data-glyph-h="30.262500000000003" data-glyph-ascender="24.936300000000003" data-glyph-descender="-5.326200000000001" data-kerning="0"></path><path d="M0,0Z" transform="translate(474.3944267267042 24) " fill="#242424" stroke="#242424" stroke-width="0.04" data-glyph-w="6.8030100000000004" data-glyph-h="30.262500000000003" data-glyph-ascender="24.936300000000003" data-glyph-descender="-5.326200000000001" data-kerning="0"></path><path d="M4.95 0L2.22 0L2.22-17.92L4.95-17.92L4.95-10.37L15.16-10.37L15.16-17.92L17.89-17.92L17.89 0L15.16 0L15.16-7.99L4.95-7.99L4.95 0Z" transform="translate(481.19743672670415 24) " fill="#242424" stroke="#242424" stroke-width="0.04" data-glyph-w="20.106405000000002" data-glyph-h="30.262500000000003" data-glyph-ascender="24.936300000000003" data-glyph-descender="-5.326200000000001" data-kerning="0"></path><path d="M7.90 0.24Q5.88 0.24 4.39-0.52Q2.89-1.28 2.08-2.81Q1.26-4.33 1.26-6.59L1.26-6.59Q1.26-8.81 2.06-10.33Q2.87-11.85 4.36-12.61Q5.85-13.38 7.90-13.38L7.90-13.38Q11.05-13.38 12.79-11.66Q14.54-9.95 14.54-6.59L14.54-6.59Q14.54-4.37 13.71-2.84Q12.89-1.31 11.40-0.53Q9.90 0.24 7.90 0.24L7.90 0.24ZM7.90-1.89Q11.85-1.89 11.85-6.57L11.85-6.57Q11.85-9.01 10.83-10.13Q9.82-11.25 7.90-11.25L7.90-11.25Q5.99-11.25 4.97-10.13Q3.95-9.02 3.95-6.60L3.95-6.60Q3.95-1.89 7.90-1.89L7.90-1.89Z" transform="translate(501.30384172670415 24) " fill="#242424" stroke="#242424" stroke-width="0.04" data-glyph-w="15.797025000000001" data-glyph-h="30.262500000000003" data-glyph-ascender="24.936300000000003" data-glyph-descender="-5.326200000000001" data-kerning="0"></path><path d="M16.96-13.38Q19.14-13.38 20.37-12.09Q21.61-10.81 21.61-8.10L21.61-8.10L21.61 0L18.92 0L18.92-7.97Q18.92-9.62 18.24-10.35Q17.55-11.08 16.31-11.08L16.31-11.08Q15.40-11.08 14.55-10.72Q13.70-10.36 13.07-9.60L13.07-9.60Q13.18-8.93 13.18-8.12L13.18-8.12L13.18 0L10.54 0L10.54-7.97Q10.54-9.64 9.90-10.36Q9.25-11.08 8.01-11.08L8.01-11.08Q7.07-11.08 6.19-10.66Q5.31-10.25 4.68-9.44L4.68-9.44L4.68 0L2.00 0L2.00-13.17L4.22-13.17L4.39-11.73L4.55-11.73Q5.35-12.53 6.43-12.95Q7.51-13.38 8.74-13.38L8.74-13.38Q9.99-13.38 10.92-12.92Q11.86-12.46 12.42-11.50L12.42-11.50Q13.42-12.48 14.60-12.93Q15.77-13.38 16.96-13.38L16.96-13.38Z" transform="translate(517.1008667267041 24) " fill="#242424" stroke="#242424" stroke-width="0.04" data-glyph-w="23.423175" data-glyph-h="30.262500000000003" data-glyph-ascender="24.936300000000003" data-glyph-descender="-5.326200000000001" data-kerning="0"></path><path d="M13.48-6.49L13.48-5.79L3.93-5.79Q4.01-4.36 4.55-3.48Q5.10-2.60 6.19-2.19Q7.28-1.78 8.98-1.78L8.98-1.78Q10.68-1.78 12.73-2.30L12.73-2.30L12.73-0.30Q10.59 0.24 8.61 0.24L8.61 0.24Q4.93 0.24 3.09-1.42Q1.26-3.09 1.26-6.56L1.26-6.56Q1.26-8.74 2.00-10.27Q2.74-11.79 4.13-12.58Q5.53-13.38 7.51-13.38L7.51-13.38Q10.41-13.38 11.95-11.60Q13.48-9.83 13.48-6.49L13.48-6.49ZM7.47-11.60Q5.77-11.60 4.88-10.57Q3.98-9.55 3.92-7.41L3.92-7.41L10.96-7.41Q10.91-9.55 10.04-10.57Q9.16-11.60 7.47-11.60L7.47-11.60Z" transform="translate(540.5240417267041 24) " fill="#242424" stroke="#242424" stroke-width="0.04" data-glyph-w="14.526000000000002" data-glyph-h="30.262500000000003" data-glyph-ascender="24.936300000000003" data-glyph-descender="-5.326200000000001" data-kerning="0"></path></g></svg>
                </g>
              </g>
              <g id="shape_CHqaasSnIT" ref="shape_CHqaasSnIT" key="shape_CHqaasSnIT" mask="">
                <g transform="translate(292.180102140961,156.60446160099633) rotate(0,107.81989785903885,80.32024684864902) scale(1,1)" style="opacity: 1;mix-blend-mode: undefined;" filter="">
                  <!--普通元素-->
                  <svg version="1.1" id="图层_1" xmlns="http://www.w3.org/2000/svg" xmlns:xlink="http://www.w3.org/1999/xlink" x="0px" y="0px" width="215.6397957180777" height="160.64049369729804" viewBox="7.81219482421875 31.351587295532227 184.38780212402344 137.359375" style="enable-background:new 0 0 200 200;" xml:space="preserve" class="style-removed" preserveAspectRatio="none" data-parent="shape_CHqaasSnIT">

<g>
	<path d="M89.2,167.5c-1.4-4.6-3-9.1-5.1-13.1c-1.9-3.6-4.2-6.9-7.3-9.6c-3.9-3.3-8.4-5-13.5-4.9
		c-2.1,0.1-4.3,0.2-6.4,0.2c-1.1,0-2.1-0.1-3.2-0.3c-4.6-1-6.5-3.7-5.9-8.3c0.2-1.6,0.7-3.1,1.1-4.7c0.7-2.9,1.1-5.7-1.7-7.9
		c-0.7-0.5-1.1-0.9-1.3-2.5c0.9-1.1,1.6-2,2.4-3c-1.8-1-3.9-1.6-4.9-2.9c-1.5-2,0.4-3.6,1.3-4.9c2.4-3.1,2.2-4.5-0.8-7
		c-0.9-0.8-1.9-1.4-2.8-2.2c-1.3-1.2-1.3-1.2-1.9-3.5c0.4-1.8,1.7-2.5,3.2-3.2c3.1-1.4,6.3-2.7,9.2-4.4c2.9-1.6,5.4-3.9,6.9-7.1
		c-2.3-2.1-5.1-4.3-5-7.2c2.8,2.6,4.1,3.4,7.2,4.1c-0.5-9.6,3.1-19.2,11.2-24.7c0-8.4,4.3-14.6,12.1-18.7c-2.2-0.3-9.3-0.5-14.1-0.2
		c-37.7,2-66.2,37-61.6,76.1c3.4,28.8,23.2,51.7,51,59C68.4,168.9,79.5,169.5,89.2,167.5z" fill="#8c9b7e" stroke-width="0"></path>
	<path d="M87.3,32.1c0,0,19.3-1.8,33.8,11.7c14.5,13.5,11.1,27.9,5.1,37.4c0,0-0.7-21.7-11.2-28.8c0,0,11.9,14.7,6,32.5
		c-5.6,17-21.5,12-19.7,1.4c0,0,1.5,5.4,5.8,6.1c3.7,0.5,6.4-1.2,8.6-4c2.9-3.7,2.6-7.1,2.6-7.1s-9.2,0.5-15.3-5.2
		c-8.1-7.6-5.8-22.6-6-27.6C96.8,43.5,94.8,37.5,87.3,32.1z" fill="#750817" stroke-width="0"></path>
	<path d="M172.8,52.9c0,0-4.8,1.5-8.2,6.4c-3.4,5-4.3,8.3-6.1,12.5c-2.1,4.9-6.3,8.8-11.6,9.3s-9-1.8-9-1.8
		s3.3-13.4,11.9-19c0,0-10.9,4.3-13.4,17.3c0,0-4-7.9,0.8-15.5C142.6,53.6,156.3,47.5,172.8,52.9z" fill="#750817" stroke-width="0"></path>
	<path d="M192.2,96.1c0,0-17.3,2-24.9,14.1c-7.7,12.2-17.2,24.2-25.6,27.9c-2.4,1-5.6,1.5-9.2,1.7
		c-9.1,0.4-20-1.6-22.8-2.9c0,0-6.6,10.8-7.4,26.8c-1.5,0.6-3.1,1.2-4.7,1.7c0.5-3.5,3.4-20.7,11.2-33.1
		c8.7-13.8,17.2-23.4,33.7-31.7c-0.8,0.2-27.6,6.4-37.8,31.9c0,0-3.2-18.8,8.8-32c8.1-8.9,18.4-13.6,30.2-15.1
		c5.7-0.7,11.7-0.6,18,0.1C180.9,87.7,192.2,96.1,192.2,96.1z" fill="#750817" stroke-width="0"></path>
</g>
</svg>
                </g>
              </g>
              <g id="shape_z9PBvJzKDv" ref="shape_z9PBvJzKDv" key="shape_z9PBvJzKDv" mask="">
                <g transform="translate(159.04682871314705,254.87057171247872) rotate(0,240.95317128685295,131.74453819332777) scale(1,1)" style="opacity: 1;mix-blend-mode: undefined;" filter="">
                  <!--普通元素-->
                  <svg xmlns="http://www.w3.org/2000/svg" version="1.1" xmlns:xlink="http://www.w3.org/1999/xlink" width="481.90634257370584" height="263.48907638665554" viewBox="0 0 558.208180147876 305.208180147876" data-ligature="true" data-parent="shape_z9PBvJzKDv"><g data-role="text" data-width="291.74146507262844" data-height="39" transform="translate(133.2333575376238, 133.104090073938)"><path d="M18.24-28.40L18.24-3.86Q18.24-3.36 18.34-2.91Q18.44-2.47 18.73-2.14Q19.02-1.82 19.53-1.62Q20.04-1.43 20.86-1.43L20.86-1.43Q22.06-1.43 23.05-2.11Q24.05-2.79 24.76-3.87Q25.48-4.94 25.87-6.27Q26.26-7.60 26.26-8.93L26.26-8.93Q26.26-10.90 25.73-12.40Q25.20-13.91 24.24-14.95Q23.29-15.99 21.99-16.56Q20.69-17.14 19.17-17.22L19.17-17.22L19.61-18.33Q20.56-18.29 21.43-18.59Q22.29-18.89 22.95-19.65Q23.61-20.41 24.00-21.70Q24.39-22.99 24.39-24.94L24.39-24.94Q24.39-26.26 24.07-27.32Q23.74-28.38 23.21-29.11Q22.68-29.83 21.98-30.22Q21.28-30.61 20.54-30.61L20.54-30.61Q20.08-30.61 19.66-30.50Q19.24-30.40 18.92-30.14Q18.61-29.88 18.43-29.45Q18.24-29.03 18.24-28.40L18.24-28.40ZM18.68-32.39L18.68-32.39Q24.96-32.39 27.92-30.43Q30.87-28.47 30.87-24.72L30.87-24.72Q30.87-23.79 30.67-23.01Q30.46-22.23 30.14-21.59Q29.81-20.95 29.40-20.45Q28.99-19.95 28.55-19.59L28.55-19.59Q27.54-18.70 26.26-18.20L26.26-18.20L26.26-17.87Q28.27-17.64 29.88-16.66L29.88-16.66Q30.55-16.25 31.20-15.63Q31.85-15.01 32.36-14.14Q32.87-13.26 33.18-12.10Q33.49-10.94 33.49-9.45L33.49-9.45Q33.49-7.17 32.67-5.35Q31.85-3.53 30.22-2.26Q28.60-1.00 26.17-0.32Q23.74 0.35 20.54 0.35L20.54 0.35Q17.57 0.35 15.71-0.02Q13.84-0.39 12.80-1.09Q11.76-1.80 11.38-2.79Q11.01-3.79 11.01-5.05L11.01-5.05L11.01-28.75Q11.01-29.94 9.36-29.94L9.36-29.94Q8.17-29.94 6.94-29.58Q5.72-29.23 4.73-28.61Q3.75-27.99 3.12-27.14Q2.49-26.28 2.49-25.28L2.49-25.28Q2.49-24.59 2.68-24.18Q2.86-23.77 3.10-23.56Q3.34-23.35 3.59-23.30Q3.83-23.25 3.94-23.25L3.94-23.25Q4.48-23.25 4.83-23.43Q5.18-23.61 5.46-23.82Q5.74-24.03 5.99-24.21Q6.24-24.39 6.56-24.39L6.56-24.39Q6.82-24.39 7.12-24.28Q7.41-24.16 7.66-23.90Q7.91-23.64 8.08-23.21Q8.25-22.79 8.25-22.18L8.25-22.18Q8.25-21.32 7.92-20.69Q7.58-20.06 7.05-19.64Q6.52-19.22 5.84-19.01Q5.16-18.81 4.48-18.81L4.48-18.81Q3.44-18.81 2.61-19.16Q1.78-19.52 1.19-20.15Q0.61-20.78 0.30-21.62Q0-22.47 0-23.42L0-23.42Q0-25.22 0.67-26.59Q1.34-27.97 2.57-28.97Q3.79-29.96 5.50-30.62Q7.21-31.28 9.29-31.67Q11.37-32.06 13.75-32.23Q16.12-32.39 18.68-32.39Z" transform="translate(0 35) " fill="#333333" stroke="#333333" stroke-width="0.074" data-glyph-w="34.837382812499996" data-glyph-h="55.115859375" data-glyph-ascender="43.4817333984375" data-glyph-descender="-11.6341259765625" data-kerning="0"></path><path d="M9.40-30.14L9.40-1.91Q9.40-1.62 9.31-1.23Q9.21-0.84 8.85-0.50Q8.49-0.15 7.81 0.10Q7.13 0.35 5.98 0.35L5.98 0.35Q4.83 0.35 4.18 0.08Q3.53-0.19 3.22-0.56Q2.90-0.93 2.83-1.32Q2.75-1.71 2.75-1.95L2.75-1.95L2.75-29.90Q2.75-30.53 2.46-30.99Q2.17-31.46 1.47-31.46L1.47-31.46Q1.10-31.46 0.83-31.34Q0.56-31.22 0.26-30.98L0.26-30.98L-0.17-31.50Q0.32-31.91 0.93-32.31Q1.54-32.71 2.26-33.02Q2.99-33.32 3.81-33.52Q4.64-33.71 5.55-33.71L5.55-33.71Q6.95-33.71 7.73-33.33Q8.51-32.95 8.88-32.40Q9.25-31.85 9.33-31.23Q9.40-30.61 9.40-30.14L9.40-30.14Z" transform="translate(34.837382812499996 35) " fill="#333333" stroke="#333333" stroke-width="0.074" data-glyph-w="12.1540869140625" data-glyph-h="55.115859375" data-glyph-ascender="43.4817333984375" data-glyph-descender="-11.6341259765625" data-kerning="0"></path><path d="M1.32-11.09L1.32-11.09Q1.32-13.93 2.14-16.06Q2.97-18.20 4.34-19.63Q5.72-21.06 7.54-21.77Q9.36-22.49 11.35-22.49L11.35-22.49Q13.35-22.49 15.17-21.83Q16.99-21.17 18.36-19.80Q19.74-18.44 20.56-16.35Q21.38-14.26 21.38-11.40L21.38-11.40Q21.38-8.56 20.56-6.37Q19.74-4.18 18.36-2.69Q16.99-1.19 15.17-0.42Q13.35 0.35 11.35 0.35L11.35 0.35Q9.36 0.35 7.54-0.38Q5.72-1.10 4.34-2.53Q2.97-3.96 2.14-6.11Q1.32-8.25 1.32-11.09ZM14.65-11.31L14.65-11.31Q14.65-13.04 14.53-14.66Q14.41-16.27 14.06-17.53Q13.71-18.78 13.06-19.53Q12.41-20.28 11.35-20.28L11.35-20.28Q10.29-20.28 9.64-19.49Q8.99-18.70 8.64-17.41Q8.30-16.12 8.19-14.47Q8.08-12.83 8.08-11.09L8.08-11.09Q8.08-9.36 8.19-7.70Q8.30-6.04 8.64-4.74Q8.99-3.44 9.64-2.65Q10.29-1.86 11.35-1.86L11.35-1.86Q12.41-1.86 13.06-2.69Q13.71-3.51 14.06-4.85Q14.41-6.20 14.53-7.89Q14.65-9.58 14.65-11.31Z" transform="translate(46.9914697265625 35) " fill="#333333" stroke="#333333" stroke-width="0.074" data-glyph-w="22.7266259765625" data-glyph-h="55.115859375" data-glyph-ascender="43.4817333984375" data-glyph-descender="-11.6341259765625" data-kerning="0"></path><path d="M9.66-20.76L9.66-20.76Q9.16-20.76 8.72-20.63Q8.28-20.50 7.93-20.20Q7.58-19.91 7.39-19.47Q7.19-19.02 7.19-18.42L7.19-18.42Q7.19-17.57 7.81-16.74Q8.43-15.90 9.35-15.00Q10.27-14.10 11.34-13.14Q12.41-12.18 13.33-11.10Q14.26-10.03 14.87-8.82Q15.49-7.60 15.49-6.22L15.49-6.22Q15.49-4.66 14.96-3.44Q14.43-2.23 13.44-1.39Q12.46-0.54 11.06-0.10Q9.66 0.35 7.95 0.35L7.95 0.35Q6.46 0.35 5.24-0.08Q4.03-0.50 3.09-1.12Q2.14-1.73 1.47-2.43Q0.80-3.12 0.43-3.68L0.43-3.68L1.19-4.22Q1.47-3.90 1.91-3.52Q2.34-3.14 2.87-2.82Q3.40-2.49 4.01-2.29Q4.61-2.08 5.24-2.08L5.24-2.08Q6.80-2.08 7.80-2.83Q8.80-3.57 8.80-5.05L8.80-5.05Q8.80-5.87 8.25-6.75Q7.71-7.63 6.89-8.56Q6.07-9.49 5.11-10.49Q4.16-11.48 3.34-12.54Q2.51-13.61 1.97-14.73Q1.43-15.86 1.43-17.07L1.43-17.07Q1.43-18.44 1.98-19.46Q2.53-20.47 3.46-21.15Q4.38-21.82 5.56-22.15Q6.74-22.49 7.99-22.49L7.99-22.49Q9.45-22.49 10.64-22.23Q11.83-21.97 12.68-21.44Q13.54-20.91 14.01-20.11Q14.47-19.30 14.47-18.24L14.47-18.24Q14.47-17.42 13.93-16.81Q13.39-16.21 12.41-16.21L12.41-16.21Q11.48-16.21 11.00-16.61Q10.51-17.01 10.51-17.70L10.51-17.70Q10.51-18.16 10.74-18.42Q10.96-18.68 11.24-18.84Q11.53-19.00 11.75-19.12Q11.98-19.24 11.98-19.43L11.98-19.43Q11.98-20.04 11.33-20.40Q10.68-20.76 9.66-20.76Z" transform="translate(69.718095703125 35) " fill="#333333" stroke="#333333" stroke-width="0.074" data-glyph-w="16.812070312499998" data-glyph-h="55.115859375" data-glyph-ascender="43.4817333984375" data-glyph-descender="-11.6341259765625" data-kerning="0"></path><path d="M9.66-20.76L9.66-20.76Q9.16-20.76 8.72-20.63Q8.28-20.50 7.93-20.20Q7.58-19.91 7.39-19.47Q7.19-19.02 7.19-18.42L7.19-18.42Q7.19-17.57 7.81-16.74Q8.43-15.90 9.35-15.00Q10.27-14.10 11.34-13.14Q12.41-12.18 13.33-11.10Q14.26-10.03 14.87-8.82Q15.49-7.60 15.49-6.22L15.49-6.22Q15.49-4.66 14.96-3.44Q14.43-2.23 13.44-1.39Q12.46-0.54 11.06-0.10Q9.66 0.35 7.95 0.35L7.95 0.35Q6.46 0.35 5.24-0.08Q4.03-0.50 3.09-1.12Q2.14-1.73 1.47-2.43Q0.80-3.12 0.43-3.68L0.43-3.68L1.19-4.22Q1.47-3.90 1.91-3.52Q2.34-3.14 2.87-2.82Q3.40-2.49 4.01-2.29Q4.61-2.08 5.24-2.08L5.24-2.08Q6.80-2.08 7.80-2.83Q8.80-3.57 8.80-5.05L8.80-5.05Q8.80-5.87 8.25-6.75Q7.71-7.63 6.89-8.56Q6.07-9.49 5.11-10.49Q4.16-11.48 3.34-12.54Q2.51-13.61 1.97-14.73Q1.43-15.86 1.43-17.07L1.43-17.07Q1.43-18.44 1.98-19.46Q2.53-20.47 3.46-21.15Q4.38-21.82 5.56-22.15Q6.74-22.49 7.99-22.49L7.99-22.49Q9.45-22.49 10.64-22.23Q11.83-21.97 12.68-21.44Q13.54-20.91 14.01-20.11Q14.47-19.30 14.47-18.24L14.47-18.24Q14.47-17.42 13.93-16.81Q13.39-16.21 12.41-16.21L12.41-16.21Q11.48-16.21 11.00-16.61Q10.51-17.01 10.51-17.70L10.51-17.70Q10.51-18.16 10.74-18.42Q10.96-18.68 11.24-18.84Q11.53-19.00 11.75-19.12Q11.98-19.24 11.98-19.43L11.98-19.43Q11.98-20.04 11.33-20.40Q10.68-20.76 9.66-20.76Z" transform="translate(86.09688447241557 35) " fill="#333333" stroke="#333333" stroke-width="0.074" data-glyph-w="16.812070312499998" data-glyph-h="55.115859375" data-glyph-ascender="43.4817333984375" data-glyph-descender="-11.6341259765625" data-kerning="-0.43328154320943363"></path><path d="M1.32-11.09L1.32-11.09Q1.32-13.93 2.14-16.06Q2.97-18.20 4.34-19.63Q5.72-21.06 7.54-21.77Q9.36-22.49 11.35-22.49L11.35-22.49Q13.35-22.49 15.17-21.83Q16.99-21.17 18.36-19.80Q19.74-18.44 20.56-16.35Q21.38-14.26 21.38-11.40L21.38-11.40Q21.38-8.56 20.56-6.37Q19.74-4.18 18.36-2.69Q16.99-1.19 15.17-0.42Q13.35 0.35 11.35 0.35L11.35 0.35Q9.36 0.35 7.54-0.38Q5.72-1.10 4.34-2.53Q2.97-3.96 2.14-6.11Q1.32-8.25 1.32-11.09ZM14.65-11.31L14.65-11.31Q14.65-13.04 14.53-14.66Q14.41-16.27 14.06-17.53Q13.71-18.78 13.06-19.53Q12.41-20.28 11.35-20.28L11.35-20.28Q10.29-20.28 9.64-19.49Q8.99-18.70 8.64-17.41Q8.30-16.12 8.19-14.47Q8.08-12.83 8.08-11.09L8.08-11.09Q8.08-9.36 8.19-7.70Q8.30-6.04 8.64-4.74Q8.99-3.44 9.64-2.65Q10.29-1.86 11.35-1.86L11.35-1.86Q12.41-1.86 13.06-2.69Q13.71-3.51 14.06-4.85Q14.41-6.20 14.53-7.89Q14.65-9.58 14.65-11.31Z" transform="translate(102.90895478491557 35) " fill="#333333" stroke="#333333" stroke-width="0.074" data-glyph-w="22.7266259765625" data-glyph-h="55.115859375" data-glyph-ascender="43.4817333984375" data-glyph-descender="-11.6341259765625" data-kerning="0"></path><path d="M21.21-16.42L21.21-1.91Q21.21-1.62 21.12-1.23Q21.04-0.84 20.70-0.50Q20.37-0.15 19.69 0.10Q19.02 0.35 17.87 0.35L17.87 0.35Q16.73 0.35 16.06 0.08Q15.40-0.19 15.07-0.56Q14.73-0.93 14.65-1.32Q14.56-1.71 14.56-1.95L14.56-1.95L14.56-17.27Q14.56-17.57 14.47-17.88Q14.39-18.20 14.21-18.46Q14.04-18.72 13.78-18.88Q13.52-19.04 13.17-19.04L13.17-19.04Q12.59-19.04 12.02-18.71Q11.46-18.37 10.97-17.94Q10.49-17.51 10.13-17.07Q9.77-16.64 9.62-16.42L9.62-16.42L9.62-1.91Q9.62-1.62 9.53-1.23Q9.45-0.84 9.11-0.50Q8.77-0.15 8.11 0.10Q7.45 0.35 6.30 0.35L6.30 0.35Q5.16 0.35 4.50 0.08Q3.83-0.19 3.49-0.56Q3.14-0.93 3.05-1.32Q2.97-1.71 2.97-1.95L2.97-1.95L2.97-18.68Q2.97-19.30 2.68-19.77Q2.38-20.24 1.69-20.24L1.69-20.24Q1.32-20.24 1.06-20.11Q0.80-19.98 0.50-19.74L0.50-19.74L0.04-20.28Q0.54-20.69 1.16-21.09Q1.78-21.49 2.49-21.80Q3.21-22.10 4.03-22.29Q4.85-22.49 5.76-22.49L5.76-22.49Q7.17-22.49 7.95-22.02Q8.73-21.56 9.10-20.91Q9.47-20.26 9.54-19.55Q9.62-18.85 9.62-18.37L9.62-18.37Q10.64-19.52 11.81-20.43L11.81-20.43Q12.28-20.82 12.86-21.19Q13.43-21.56 14.04-21.85Q14.65-22.14 15.30-22.31Q15.95-22.49 16.60-22.49L16.60-22.49Q17.85-22.49 18.74-22.03Q19.63-21.58 20.17-20.94Q20.71-20.30 20.96-19.60Q21.21-18.89 21.21-18.37L21.21-18.37Q22.25-19.52 23.40-20.43L23.40-20.43Q23.87-20.82 24.44-21.19Q25.00-21.56 25.62-21.85Q26.24-22.14 26.88-22.31Q27.51-22.49 28.16-22.49L28.16-22.49Q29.42-22.49 30.31-22.02Q31.20-21.56 31.74-20.80Q32.28-20.04 32.53-19.09Q32.78-18.13 32.78-17.18L32.78-17.18L32.78-3.77Q32.78-3.57 32.80-3.35Q32.82-3.12 32.91-2.91Q33.00-2.71 33.18-2.58Q33.36-2.45 33.67-2.45L33.67-2.45Q34.08-2.45 34.40-2.74Q34.73-3.03 35.01-3.34L35.01-3.34L35.53-2.88Q35.23-2.43 34.73-1.87Q34.23-1.32 33.55-0.82Q32.87-0.32 31.97 0.01Q31.07 0.35 29.94 0.35L29.94 0.35Q28.99 0.35 28.28 0.10Q27.58-0.15 27.09-0.57Q26.60-1.00 26.37-1.57Q26.13-2.14 26.13-2.79L26.13-2.79L26.13-17.27Q26.13-17.57 26.04-17.88Q25.95-18.20 25.79-18.46Q25.63-18.72 25.37-18.88Q25.11-19.04 24.76-19.04L24.76-19.04Q24.18-19.04 23.60-18.71Q23.03-18.37 22.54-17.94Q22.06-17.51 21.71-17.07Q21.36-16.64 21.21-16.42L21.21-16.42Z" transform="translate(125.63558076147807 35) " fill="#333333" stroke="#333333" stroke-width="0.074" data-glyph-w="35.7689794921875" data-glyph-h="55.115859375" data-glyph-ascender="43.4817333984375" data-glyph-descender="-11.6341259765625" data-kerning="0"></path><path d="M0,0Z" transform="translate(161.40456025366558 35) " fill="#333333" stroke="#333333" stroke-width="0.074" data-glyph-w="9.9875830078125" data-glyph-h="55.115859375" data-glyph-ascender="43.4817333984375" data-glyph-descender="-11.6341259765625" data-kerning="0"></path><path d="M18.20-25.15L24.05-7.45Q24.83-9.47 25.69-11.95Q26.56-14.43 27.29-16.97Q28.01-19.52 28.49-21.93Q28.97-24.33 28.97-26.21L28.97-26.21Q28.97-27.64 28.77-28.60Q28.58-29.55 28.33-30.19Q28.08-30.83 27.88-31.24Q27.69-31.65 27.69-32.00L27.69-32.00Q27.69-32.45 27.94-32.77Q28.19-33.08 28.55-33.30Q28.92-33.52 29.36-33.61Q29.79-33.71 30.18-33.71L30.18-33.71Q31.05-33.71 31.64-33.45Q32.24-33.19 32.48-32.56L32.48-32.56Q32.58-32.24 32.65-31.88Q32.71-31.52 32.75-31.19Q32.78-30.85 32.78-30.56Q32.78-30.27 32.78-30.09L32.78-30.09Q32.78-29.18 32.48-27.60Q32.17-26.02 31.66-24.03Q31.15-22.03 30.48-19.76Q29.81-17.48 29.10-15.18Q28.38-12.87 27.64-10.66Q26.91-8.45 26.26-6.58Q25.61-4.70 25.10-3.29Q24.59-1.88 24.31-1.19L24.31-1.19Q24.11-0.69 23.82-0.39Q23.53-0.09 23.16 0.08Q22.79 0.24 22.35 0.29Q21.90 0.35 21.43 0.35L21.43 0.35Q20.56 0.35 20.02 0.17Q19.48 0 19.14-0.26Q18.81-0.52 18.65-0.82Q18.50-1.13 18.42-1.36L18.42-1.36L10.20-27.15Q9.97-27.88 9.72-28.39Q9.47-28.90 9.11-29.23Q8.75-29.55 8.25-29.70Q7.76-29.85 7.02-29.85L7.02-29.85Q6.41-29.85 5.61-29.56Q4.81-29.27 4.08-28.70Q3.36-28.12 2.86-27.27Q2.36-26.41 2.36-25.28L2.36-25.28Q2.36-24.59 2.55-24.18Q2.73-23.77 2.97-23.56Q3.21-23.35 3.46-23.30Q3.70-23.25 3.81-23.25L3.81-23.25Q4.35-23.25 4.70-23.43Q5.05-23.61 5.33-23.82Q5.61-24.03 5.86-24.21Q6.11-24.39 6.43-24.39L6.43-24.39Q6.69-24.39 6.99-24.28Q7.28-24.16 7.53-23.90Q7.78-23.64 7.95-23.21Q8.12-22.79 8.12-22.18L8.12-22.18Q8.12-21.32 7.79-20.69Q7.45-20.06 6.92-19.64Q6.39-19.22 5.71-19.01Q5.03-18.81 4.35-18.81L4.35-18.81Q3.31-18.81 2.50-19.17Q1.69-19.54 1.14-20.17Q0.58-20.80 0.29-21.63Q0-22.47 0-23.42L0-23.42Q0-25.67 0.87-27.35Q1.73-29.03 3.16-30.16Q4.59-31.28 6.41-31.84Q8.23-32.39 10.16-32.39L10.16-32.39Q12.33-32.39 13.71-31.73Q15.10-31.07 15.96-30.03Q16.81-28.99 17.31-27.70Q17.81-26.41 18.20-25.15L18.20-25.15Z" transform="translate(171.39214326147808 35) " fill="#333333" stroke="#333333" stroke-width="0.074" data-glyph-w="32.7792041015625" data-glyph-h="55.115859375" data-glyph-ascender="43.4817333984375" data-glyph-descender="-11.6341259765625" data-kerning="0"></path><path d="M12.46-5.94L12.46-11.22Q12.46-11.76 12.11-12.05Q11.76-12.33 11.22-12.33L11.22-12.33Q10.46-12.33 9.78-11.98Q9.10-11.63 8.58-10.96Q8.06-10.29 7.76-9.31Q7.45-8.32 7.45-7.02L7.45-7.02Q7.45-5.76 7.64-4.94Q7.82-4.12 8.14-3.63Q8.45-3.14 8.86-2.95Q9.27-2.75 9.73-2.75L9.73-2.75Q10.29-2.75 10.79-3.04Q11.29-3.34 11.66-3.79Q12.02-4.25 12.24-4.81Q12.46-5.37 12.46-5.94L12.46-5.94ZM9.01-20.71L9.01-20.71Q8.28-20.71 7.65-20.54Q7.02-20.37 6.56-20.11Q6.11-19.85 5.85-19.53Q5.59-19.22 5.59-18.94L5.59-18.94Q5.59-18.61 5.93-18.47Q6.26-18.33 6.67-18.14Q7.08-17.96 7.42-17.62Q7.76-17.29 7.76-16.60L7.76-16.60Q7.76-16.14 7.57-15.76Q7.39-15.38 7.07-15.09Q6.76-14.80 6.34-14.63Q5.91-14.47 5.46-14.47L5.46-14.47Q4.25-14.47 3.50-15.30Q2.75-16.12 2.75-17.48L2.75-17.48Q2.75-18.81 3.44-19.75Q4.14-20.69 5.25-21.30Q6.37-21.90 7.78-22.20Q9.19-22.49 10.59-22.49L10.59-22.49Q12.28-22.49 13.82-22.12Q15.36-21.75 16.54-20.95Q17.72-20.15 18.43-18.91Q19.13-17.68 19.13-15.92L19.13-15.92L19.13-3.68Q19.13-3.49 19.15-3.25Q19.17-3.01 19.26-2.82Q19.35-2.62 19.52-2.49Q19.69-2.36 20.02-2.36L20.02-2.36Q20.41-2.36 20.74-2.65Q21.08-2.95 21.34-3.25L21.34-3.25L21.88-2.79Q21.56-2.34 21.10-1.80Q20.65-1.26 20.00-0.78Q19.35-0.30 18.48 0.02Q17.61 0.35 16.51 0.35L16.51 0.35Q15.14 0.35 14.08-0.47Q13.02-1.28 12.70-2.97L12.70-2.97Q12.00-2.04 11.25-1.41Q10.51-0.78 9.73-0.39Q8.95 0 8.16 0.17Q7.37 0.35 6.56 0.35L6.56 0.35Q5.52 0.35 4.55 0.02Q3.57-0.30 2.81-1.01Q2.04-1.71 1.57-2.84Q1.10-3.96 1.10-5.59L1.10-5.59Q1.10-7.56 1.88-8.82Q2.66-10.07 3.93-10.93Q5.20-11.79 6.81-12.39Q8.43-13.00 10.12-13.67L10.12-13.67Q11.37-14.17 11.95-15.15Q12.52-16.14 12.52-17.18L12.52-17.18Q12.52-18.78 11.58-19.75Q10.64-20.71 9.01-20.71Z" transform="translate(203.49976097106597 35) " fill="#333333" stroke="#333333" stroke-width="0.074" data-glyph-w="22.098339843749997" data-glyph-h="55.115859375" data-glyph-ascender="43.4817333984375" data-glyph-descender="-11.6341259765625" data-kerning="-0.6715863919746221"></path><path d="M9.40-30.14L9.40-1.91Q9.40-1.62 9.31-1.23Q9.21-0.84 8.85-0.50Q8.49-0.15 7.81 0.10Q7.13 0.35 5.98 0.35L5.98 0.35Q4.83 0.35 4.18 0.08Q3.53-0.19 3.22-0.56Q2.90-0.93 2.83-1.32Q2.75-1.71 2.75-1.95L2.75-1.95L2.75-29.90Q2.75-30.53 2.46-30.99Q2.17-31.46 1.47-31.46L1.47-31.46Q1.10-31.46 0.83-31.34Q0.56-31.22 0.26-30.98L0.26-30.98L-0.17-31.50Q0.32-31.91 0.93-32.31Q1.54-32.71 2.26-33.02Q2.99-33.32 3.81-33.52Q4.64-33.71 5.55-33.71L5.55-33.71Q6.95-33.71 7.73-33.33Q8.51-32.95 8.88-32.40Q9.25-31.85 9.33-31.23Q9.40-30.61 9.40-30.14L9.40-30.14Z" transform="translate(225.59810081481595 35) " fill="#333333" stroke="#333333" stroke-width="0.074" data-glyph-w="12.1540869140625" data-glyph-h="55.115859375" data-glyph-ascender="43.4817333984375" data-glyph-descender="-11.6341259765625" data-kerning="0"></path><path d="M9.40-30.14L9.40-1.91Q9.40-1.62 9.31-1.23Q9.21-0.84 8.85-0.50Q8.49-0.15 7.81 0.10Q7.13 0.35 5.98 0.35L5.98 0.35Q4.83 0.35 4.18 0.08Q3.53-0.19 3.22-0.56Q2.90-0.93 2.83-1.32Q2.75-1.71 2.75-1.95L2.75-1.95L2.75-29.90Q2.75-30.53 2.46-30.99Q2.17-31.46 1.47-31.46L1.47-31.46Q1.10-31.46 0.83-31.34Q0.56-31.22 0.26-30.98L0.26-30.98L-0.17-31.50Q0.32-31.91 0.93-32.31Q1.54-32.71 2.26-33.02Q2.99-33.32 3.81-33.52Q4.64-33.71 5.55-33.71L5.55-33.71Q6.95-33.71 7.73-33.33Q8.51-32.95 8.88-32.40Q9.25-31.85 9.33-31.23Q9.40-30.61 9.40-30.14L9.40-30.14Z" transform="translate(237.75218772887845 35) " fill="#333333" stroke="#333333" stroke-width="0.074" data-glyph-w="12.1540869140625" data-glyph-h="55.115859375" data-glyph-ascender="43.4817333984375" data-glyph-descender="-11.6341259765625" data-kerning="0"></path><path d="M16.86-14.99L8.30-9.94Q8.30-9.25 8.50-8.44Q8.71-7.63 9.10-6.80Q9.49-5.98 10.06-5.23Q10.64-4.48 11.38-3.90Q12.13-3.31 13.04-2.97Q13.95-2.62 15.04-2.62L15.04-2.62Q15.79-2.62 16.44-2.79Q17.09-2.97 17.66-3.27Q18.22-3.57 18.74-3.98Q19.26-4.38 19.78-4.83L19.78-4.83L20.32-4.31Q19.82-3.64 19.04-2.84Q18.26-2.04 17.16-1.33Q16.05-0.63 14.58-0.16Q13.11 0.30 11.22 0.30L11.22 0.30Q9.34 0.30 7.55-0.38Q5.76-1.06 4.38-2.43Q2.99-3.79 2.16-5.83Q1.32-7.86 1.32-10.59L1.32-10.59Q1.32-12.57 1.82-14.21Q2.32-15.86 3.17-17.18Q4.03-18.50 5.17-19.50Q6.30-20.50 7.56-21.16Q8.82-21.82 10.13-22.15Q11.44-22.49 12.65-22.49L12.65-22.49Q14.26-22.49 15.45-22.14Q16.64-21.80 17.43-21.21Q18.22-20.63 18.61-19.86Q19.00-19.09 19.00-18.24L19.00-18.24Q19.00-17.22 18.42-16.41Q17.83-15.60 16.86-14.99L16.86-14.99ZM8.08-11.72L12.65-14.34Q12.93-14.52 13.12-14.68Q13.30-14.84 13.41-15.07Q13.52-15.30 13.57-15.63Q13.63-15.97 13.63-16.47L13.63-16.47Q13.63-17.01 13.51-17.67Q13.39-18.33 13.11-18.91Q12.83-19.50 12.39-19.89Q11.96-20.28 11.35-20.28L11.35-20.28Q10.57-20.28 10.02-19.81Q9.47-19.35 9.11-18.61Q8.75-17.87 8.55-16.93Q8.34-15.99 8.23-15.04Q8.12-14.08 8.10-13.20Q8.08-12.33 8.08-11.72L8.08-11.72Z" transform="translate(249.90627464294096 35) " fill="#333333" stroke="#333333" stroke-width="0.074" data-glyph-w="20.538457031249997" data-glyph-h="55.115859375" data-glyph-ascender="43.4817333984375" data-glyph-descender="-11.6341259765625" data-kerning="0"></path><path d="M19.98-19.09L19.98-19.09Q19.98-15.12 19.21-11.43Q18.44-7.73 17.08-4.50Q15.73-1.26 13.87 1.42Q12.00 4.09 9.81 6.00Q7.63 7.91 5.19 8.97Q2.75 10.03 0.26 10.03L0.26 10.03Q-1.65 10.03-2.69 9.39Q-3.73 8.75-3.73 7.67L-3.73 7.67Q-3.73 7.26-3.60 6.87Q-3.47 6.48-3.25 6.17Q-3.03 5.87-2.73 5.69Q-2.43 5.50-2.08 5.50L-2.08 5.50Q-1.67 5.50-1.40 5.91Q-1.13 6.33-0.82 6.81Q-0.52 7.30-0.09 7.71Q0.35 8.12 1.10 8.12L1.10 8.12Q2.08 8.12 3.14 7.79Q4.20 7.45 5.28 6.82Q6.35 6.20 7.42 5.30Q8.49 4.40 9.53 3.29L9.53 3.29Q8.93 1.10 8.14-1.48Q7.34-4.07 6.47-6.69Q5.59-9.32 4.67-11.75Q3.75-14.19 2.87-16.08Q1.99-17.96 1.18-19.10Q0.37-20.24-0.26-20.24L-0.26-20.24Q-0.67-20.24-0.90-20.11Q-1.13-19.98-1.43-19.74L-1.43-19.74L-1.86-20.28Q-1.43-20.65-0.95-21.04Q-0.48-21.43 0.17-21.75Q0.82-22.08 1.69-22.28Q2.56-22.49 3.77-22.49L3.77-22.49Q5.09-22.49 6.23-21.89Q7.37-21.30 8.30-19.69L8.30-19.69Q8.97-18.50 9.70-16.83Q10.42-15.17 11.16-13.11Q11.89-11.05 12.64-8.66Q13.39-6.26 14.15-3.64L14.15-3.64Q15.49-6.46 16.31-9.61Q17.14-12.76 17.14-16.10L17.14-16.10Q17.14-17.29 16.99-18.13Q16.83-18.98 16.64-19.57Q16.44-20.17 16.29-20.59Q16.14-21.02 16.14-21.34L16.14-21.34Q16.14-21.67 16.40-21.89Q16.66-22.12 17.03-22.25Q17.40-22.38 17.78-22.43Q18.16-22.49 18.42-22.49L18.42-22.49Q19.00-22.49 19.31-22.25Q19.63-22.01 19.78-21.57Q19.93-21.12 19.95-20.50Q19.98-19.87 19.98-19.09Z" transform="translate(270.44473167419096 35) " fill="#333333" stroke="#333333" stroke-width="0.074" data-glyph-w="21.2967333984375" data-glyph-h="55.115859375" data-glyph-ascender="43.4817333984375" data-glyph-descender="-11.6341259765625" data-kerning="0"></path></g></svg>
                </g>
              </g>
    </svg>