<svg xmlns="http://www.w3.org/2000/svg" xmlns:xlink="http://www.w3.org/1999/xlink" class="svg-canvas" viewBox="219.54300305851 56.467711508164 360.91399388297 360.91399388297" width="1600" height="1600" preserveAspectRatio="none" version="1.1" style="background-color:#ffffff"><!--滤镜--><defs></defs><!-- 背景 --><g id="background"><rect x="0" y="0" fill="#ffffff" width="800" height="600"></rect></g><!--元素--><g id="shape_CHqaasSnIT" ref="shape_CHqaasSnIT" key="shape_CHqaasSnIT" mask=""><g transform="translate(292.180102140961,156.60446160099633) rotate(0,107.81989785903885,80.32024684864902) scale(1,1)" style="opacity: 1;mix-blend-mode: undefined;" filter=""><!--普通元素--><svg xmlns="http://www.w3.org/2000/svg" xmlns:xlink="http://www.w3.org/1999/xlink" version="1.1" id="图层_1" x="0px" y="0px" width="215.6397957180777" height="160.64049369729804" viewBox="7.81219482421875 31.351587295532227 184.38780212402344 137.359375" style="enable-background:new 0 0 200 200;" xml:space="preserve" class="style-removed" preserveAspectRatio="none" data-parent="shape_CHqaasSnIT">

<g>
	<path d="M89.2,167.5c-1.4-4.6-3-9.1-5.1-13.1c-1.9-3.6-4.2-6.9-7.3-9.6c-3.9-3.3-8.4-5-13.5-4.9   c-2.1,0.1-4.3,0.2-6.4,0.2c-1.1,0-2.1-0.1-3.2-0.3c-4.6-1-6.5-3.7-5.9-8.3c0.2-1.6,0.7-3.1,1.1-4.7c0.7-2.9,1.1-5.7-1.7-7.9   c-0.7-0.5-1.1-0.9-1.3-2.5c0.9-1.1,1.6-2,2.4-3c-1.8-1-3.9-1.6-4.9-2.9c-1.5-2,0.4-3.6,1.3-4.9c2.4-3.1,2.2-4.5-0.8-7   c-0.9-0.8-1.9-1.4-2.8-2.2c-1.3-1.2-1.3-1.2-1.9-3.5c0.4-1.8,1.7-2.5,3.2-3.2c3.1-1.4,6.3-2.7,9.2-4.4c2.9-1.6,5.4-3.9,6.9-7.1   c-2.3-2.1-5.1-4.3-5-7.2c2.8,2.6,4.1,3.4,7.2,4.1c-0.5-9.6,3.1-19.2,11.2-24.7c0-8.4,4.3-14.6,12.1-18.7c-2.2-0.3-9.3-0.5-14.1-0.2   c-37.7,2-66.2,37-61.6,76.1c3.4,28.8,23.2,51.7,51,59C68.4,168.9,79.5,169.5,89.2,167.5z" fill="#8c9b7e" stroke-width="0"></path>
	<path d="M87.3,32.1c0,0,19.3-1.8,33.8,11.7c14.5,13.5,11.1,27.9,5.1,37.4c0,0-0.7-21.7-11.2-28.8c0,0,11.9,14.7,6,32.5   c-5.6,17-21.5,12-19.7,1.4c0,0,1.5,5.4,5.8,6.1c3.7,0.5,6.4-1.2,8.6-4c2.9-3.7,2.6-7.1,2.6-7.1s-9.2,0.5-15.3-5.2   c-8.1-7.6-5.8-22.6-6-27.6C96.8,43.5,94.8,37.5,87.3,32.1z" fill="#750817" stroke-width="0"></path>
	<path d="M172.8,52.9c0,0-4.8,1.5-8.2,6.4c-3.4,5-4.3,8.3-6.1,12.5c-2.1,4.9-6.3,8.8-11.6,9.3s-9-1.8-9-1.8   s3.3-13.4,11.9-19c0,0-10.9,4.3-13.4,17.3c0,0-4-7.9,0.8-15.5C142.6,53.6,156.3,47.5,172.8,52.9z" fill="#750817" stroke-width="0"></path>
	<path d="M192.2,96.1c0,0-17.3,2-24.9,14.1c-7.7,12.2-17.2,24.2-25.6,27.9c-2.4,1-5.6,1.5-9.2,1.7   c-9.1,0.4-20-1.6-22.8-2.9c0,0-6.6,10.8-7.4,26.8c-1.5,0.6-3.1,1.2-4.7,1.7c0.5-3.5,3.4-20.7,11.2-33.1   c8.7-13.8,17.2-23.4,33.7-31.7c-0.8,0.2-27.6,6.4-37.8,31.9c0,0-3.2-18.8,8.8-32c8.1-8.9,18.4-13.6,30.2-15.1   c5.7-0.7,11.7-0.6,18,0.1C180.9,87.7,192.2,96.1,192.2,96.1z" fill="#750817" stroke-width="0"></path>
</g>
</svg></g></g></svg>